<?xml version="1.0" encoding="UTF-8"?>
<svg id="Layer_1" data-name="Layer 1" xmlns="http://www.w3.org/2000/svg" viewBox="0 0 450 450">
  <defs>
    <style>
      .cls-1 {
        fill: #fff;
      }
    </style>
  </defs>
  <path class="cls-1" d="m272.8,127.9h-95.5c-27.2,0-49.4,22.1-49.4,49.4v95.5c0,27.2,22.1,49.4,49.4,49.4h95.5c27.2,0,49.4-22.1,49.4-49.4v-95.5c-.1-27.3-22.2-49.4-49.4-49.4Zm-47.8,161c-35.2,0-63.9-28.7-63.9-63.9s28.7-63.9,63.9-63.9,63.9,28.7,63.9,63.9-28.7,63.9-63.9,63.9h0Zm67.1-120.7c-6,0-10.8-4.8-10.8-10.8s4.8-10.8,10.8-10.8,10.8,4.8,10.8,10.8-4.8,10.8-10.8,10.8Z"/>
  <circle class="cls-1" cx="225.04" cy="225.01" r="38.8"/>
  <path class="cls-1" d="m225,0C100.7,0,0,100.7,0,225s100.7,225,225,225,225-100.7,225-225S349.3,0,225,0Zm125,272.8c0,42.6-34.6,77.2-77.2,77.2h-95.5c-42.6,0-77.2-34.6-77.2-77.2v-95.5c0-42.6,34.6-77.2,77.2-77.2h95.5c42.6,0,77.2,34.6,77.2,77.2v95.5Z"/>
</svg>