<?xml version="1.0" encoding="UTF-8"?>
<svg id="f1" xmlns="http://www.w3.org/2000/svg" viewBox="0 0 72.7 72.7">
  <defs>
    <style>
      .cls-1 {
        fill: #fff;
      }

      .cls-2 {
        fill: #64c431;
      }
    </style>
  </defs>
  <circle class="cls-2" cx="36.35" cy="36.35" r="36.35"/>
  <g>
    <path class="cls-1" d="m23.17,19.71c-2.55,0-4.22,1.68-4.22,3.88s1.62,3.88,4.12,3.88h.05c2.6,0,4.22-1.72,4.22-3.88-.05-2.2-1.62-3.88-4.17-3.88Z"/>
    <path class="cls-1" d="m19.38,30.54h7.46v22.45h-7.46v-22.45Z"/>
    <path class="cls-1" d="m45.17,30.01c-4.03,0-6.73,3.78-6.73,3.78v-3.26h-7.46v22.45h7.46v-12.54c0-.67.05-1.34.25-1.82.54-1.34,1.77-2.73,3.83-2.73,2.7,0,3.78,2.06,3.78,5.08v12.01h7.46v-12.87c0-6.9-3.68-10.11-8.59-10.11Z"/>
  </g>
</svg>