<?xml version="1.0" encoding="UTF-8"?>
<svg id="Layer_1" data-name="Layer 1" xmlns="http://www.w3.org/2000/svg" viewBox="0 0 450 450">
  <defs>
    <style>
      .cls-1 {
        fill: #fff;
      }
    </style>
  </defs>
  <path class="cls-1" d="m225,0C100.7,0,0,100.7,0,225s100.7,225,225,225,225-100.7,225-225S349.3,0,225,0Zm-63.7,350h-59.8v-167.2h59.8v167.2Zm-29.9-190.2c-16.5,0-29.9-13.4-29.9-29.9s13.4-29.9,29.9-29.9,29.9,13.4,29.9,29.9-13.4,29.9-29.9,29.9Zm217.2,190.2h-49.3s.3-97.5.5-100.5c.3-3-2.7-27.6-27.9-27.6s-33.1,18-33.1,31.7v96.4h-46.7v-167.2h46.2v23.2s7.1-23.4,49.8-23.4c35.2,0,60.4,13.7,60.4,51.4.1,20.9.1,116,.1,116Z"/>
</svg>