<?xml version="1.0" encoding="UTF-8"?>
<svg id="f1" xmlns="http://www.w3.org/2000/svg" viewBox="0 0 25 17.58">
  <defs>
    <style>
      .cls-1 {
        fill: #fff;
      }
    </style>
  </defs>
  <path class="cls-1" d="m22.8,0H2.2C.98,0,0,.99,0,2.2v13.18c0,1.22.99,2.2,2.2,2.2h20.61c1.2,0,2.2-.98,2.2-2.2V2.2c0-1.21-.98-2.2-2.2-2.2Zm-.31,1.46c-.45.45-8.17,8.13-8.44,8.4-.42.42-.97.64-1.55.64s-1.14-.23-1.56-.64c-.18-.18-7.82-7.78-8.44-8.4h19.99ZM1.46,15.08V2.5l6.33,6.3L1.46,15.08Zm1.04,1.03l6.33-6.29,1.08,1.07c.69.69,1.61,1.07,2.59,1.07s1.9-.38,2.59-1.07l1.08-1.07,6.33,6.29H2.51Zm21.03-1.03l-6.33-6.29,6.33-6.3v12.59Z"/>
</svg>