<?xml version="1.0" encoding="UTF-8"?>
<svg id="f1" xmlns="http://www.w3.org/2000/svg" viewBox="0 0 25 25.05">
  <defs>
    <style>
      .cls-1 {
        fill: #fff;
      }
    </style>
  </defs>
  <path class="cls-1" d="m24.34,18.39l-3.5-3.5c-1.25-1.25-3.37-.75-3.87.87-.37,1.12-1.62,1.75-2.75,1.5-2.5-.62-5.87-3.87-6.49-6.49-.37-1.12.37-2.37,1.5-2.75,1.62-.5,2.12-2.62.87-3.87L6.61.66c-1-.87-2.5-.87-3.37,0L.87,3.03c-2.37,2.5.25,9.12,6.12,14.98,5.87,5.87,12.49,8.62,14.98,6.12l2.37-2.37c.87-1,.87-2.5,0-3.37Z"/>
</svg>