<?xml version="1.0" encoding="UTF-8"?>
<svg id="f1" xmlns="http://www.w3.org/2000/svg" viewBox="0 0 72.7 72.7">
  <defs>
    <style>
      .cls-1 {
        fill: #fff;
      }

      .cls-2 {
        fill: #64c431;
      }
    </style>
  </defs>
  <circle class="cls-2" cx="36.35" cy="36.35" r="36.35"/>
  <path class="cls-1" d="m28.76,52.99c15.45,0,23.9-12.8,23.9-23.9,0-.36,0-.73-.02-1.09,1.64-1.19,3.07-2.67,4.19-4.35-1.51.67-3.13,1.12-4.82,1.32,1.73-1.04,3.07-2.69,3.69-4.65-1.62.96-3.42,1.66-5.33,2.04-1.53-1.63-3.72-2.65-6.13-2.65-4.64,0-8.4,3.76-8.4,8.4,0,.66.07,1.3.22,1.92-6.98-.35-13.17-3.69-17.32-8.78-.72,1.24-1.14,2.68-1.14,4.22,0,2.91,1.48,5.49,3.74,6.99-1.38-.04-2.67-.42-3.8-1.05,0,.04,0,.07,0,.11,0,4.07,2.9,7.47,6.74,8.24-.71.19-1.45.3-2.22.3-.54,0-1.07-.05-1.58-.15,1.07,3.34,4.17,5.77,7.85,5.83-2.88,2.25-6.5,3.6-10.43,3.6-.68,0-1.35-.04-2-.12,3.72,2.38,8.13,3.77,12.88,3.77"/>
</svg>