<?xml version="1.0" encoding="UTF-8"?>
<svg id="Layer_1" data-name="Layer 1" xmlns="http://www.w3.org/2000/svg" viewBox="0 0 70.87 70.86">
  <defs>
    <style>
      .cls-1, .cls-2 {
        fill: #fff;
      }

      .cls-2 {
        fill-rule: evenodd;
      }
    </style>
  </defs>
  <g id="g11760">
    <g id="g11766">
      <path id="path11768" class="cls-1" d="m35.43,70.86v-13.72c14.56,0,25.82-14.42,20.26-29.72-2.06-5.67-6.58-10.19-12.25-12.25-15.31-5.56-29.72,5.7-29.72,20.26,0,0,0,0,0,0H0C0,12.23,22.42-5.83,46.73,1.76c10.62,3.31,19.07,11.76,22.38,22.38,7.59,24.31-10.48,46.73-33.68,46.73"/>
    </g>
    <g id="g11770">
      <path id="path11772" class="cls-2" d="m35.47,57.18h-13.68v-13.68s0,0,0,0h13.68v13.68Z"/>
    </g>
    <g id="g11774">
      <path id="path11776" class="cls-2" d="m21.78,67.69h-10.51v-10.51h10.52v10.51h0Z"/>
    </g>
    <g id="g11778">
      <path id="path11780" class="cls-2" d="m11.28,57.18H2.47s0,0,0,0v-8.81s0,0,0,0h8.81s0,0,0,0v8.81Z"/>
    </g>
  </g>
</svg>