<?xml version="1.0" encoding="UTF-8"?>
<svg id="Layer_1" data-name="Layer 1" xmlns="http://www.w3.org/2000/svg" viewBox="0 0 70.86 70.86">
  <defs>
    <style>
      .cls-1 {
        fill: #fff;
      }
    </style>
  </defs>
  <path class="cls-1" d="m33.11.02c-.15.01-.64.06-1.07.1C21.97,1.02,12.54,6.45,6.57,14.8,3.25,19.44,1.12,24.7.32,30.28c-.28,1.95-.32,2.52-.32,5.16s.03,3.21.32,5.16c1.93,13.3,11.4,24.48,24.24,28.63,2.3.74,4.72,1.25,7.48,1.55,1.07.12,5.71.12,6.79,0,4.76-.53,8.79-1.7,12.77-3.73.61-.31.73-.39.64-.46-.06-.04-2.65-3.53-5.77-7.74l-5.67-7.65-7.1-10.51c-3.91-5.78-7.12-10.5-7.15-10.5-.03,0-.06,4.66-.07,10.36-.02,9.98-.03,10.38-.15,10.62-.18.34-.32.48-.61.63-.22.11-.42.13-1.46.13h-1.2l-.32-.2c-.21-.13-.36-.3-.46-.51l-.15-.31v-13.89s.03-13.89.03-13.89l.21-.27c.11-.15.35-.33.51-.42.28-.14.39-.15,1.59-.15,1.41,0,1.65.06,2.02.46.1.11,3.95,5.9,8.55,12.88,4.6,6.97,10.89,16.5,13.98,21.17l5.61,8.5.28-.19c2.51-1.63,5.17-3.96,7.28-6.39,4.48-5.15,7.37-11.42,8.34-18.11.28-1.95.32-2.52.32-5.16s-.03-3.21-.32-5.16c-1.93-13.3-11.4-24.48-24.24-28.63-2.27-.73-4.68-1.24-7.38-1.54-.66-.07-5.24-.15-5.82-.09h0Zm14.51,21.43c.33.17.6.48.7.82.06.18.07,4.03.06,12.71l-.02,12.45-2.2-3.37-2.2-3.37v-9.05c0-5.85.03-9.14.07-9.3.11-.39.35-.69.69-.87.28-.15.39-.16,1.48-.16,1.03,0,1.21.01,1.43.14Z"/>
</svg>