<?xml version="1.0" encoding="UTF-8"?>
<svg id="Layer_1" data-name="Layer 1" xmlns="http://www.w3.org/2000/svg" viewBox="0 0 79.48 70.86">
  <defs>
    <style>
      .cls-1 {
        fill: #fff;
      }
    </style>
  </defs>
  <path class="cls-1" d="m65.34,22.97h0c-.85-.29-1.7-.56-2.56-.81.14-.58.27-1.16.39-1.75,1.94-9.42.67-17.01-3.65-19.51-4.14-2.4-10.93.1-17.78,6.07-.67.59-1.33,1.2-1.98,1.82-.43-.42-.87-.82-1.32-1.22C31.27,1.19,24.08-1.5,19.76,1.01c-4.14,2.4-5.37,9.54-3.63,18.47.17.88.37,1.76.59,2.64-1.02.29-2,.6-2.94.93C5.37,25.98,0,30.59,0,35.36s5.77,9.89,14.53,12.89c.71.24,1.43.47,2.15.67-.24.94-.44,1.88-.62,2.84-1.66,8.78-.36,15.74,3.77,18.13,4.27,2.47,11.42-.07,18.4-6.18.55-.48,1.1-.99,1.66-1.53.7.67,1.42,1.33,2.15,1.96,6.76,5.82,13.43,8.18,17.55,5.78,4.26-2.47,5.65-9.96,3.85-19.06-.14-.7-.3-1.41-.48-2.13.5-.15,1-.3,1.48-.46,9.11-3.02,15.04-7.92,15.04-12.91,0-4.8-5.55-9.44-14.13-12.4Zm-21.36-13.42c5.87-5.12,11.35-7.14,13.85-5.69h0c2.66,1.54,3.7,7.74,2.02,15.87-.11.53-.23,1.06-.36,1.58-3.5-.8-7.05-1.36-10.63-1.68-2.05-2.95-4.29-5.76-6.72-8.4.59-.58,1.2-1.14,1.82-1.68h0Zm-20.52,29.9c.72,1.39,1.47,2.76,2.25,4.12.8,1.38,1.63,2.75,2.5,4.09-2.46-.27-4.91-.66-7.32-1.18.7-2.27,1.57-4.63,2.58-7.03Zm0-8c-.99-2.35-1.83-4.66-2.52-6.89,2.27-.51,4.69-.92,7.21-1.24-.84,1.32-1.66,2.66-2.44,4.01-.78,1.36-1.53,2.73-2.25,4.12h0Zm1.8,4c1.05-2.18,2.17-4.32,3.38-6.42h0c1.21-2.1,2.49-4.15,3.85-6.15,2.36-.18,4.79-.27,7.24-.27s4.89.09,7.25.27c1.35,2,2.62,4.04,3.83,6.13s2.35,4.22,3.43,6.39c-1.06,2.19-2.2,4.34-3.42,6.45h0c-1.2,2.1-2.47,4.15-3.81,6.17-2.36.17-4.8.26-7.29.26s-4.88-.08-7.2-.23c-1.37-2.01-2.67-4.07-3.88-6.17s-2.35-4.25-3.39-6.42h0Zm28.5,8.1c.8-1.39,1.57-2.8,2.3-4.22h0c1.01,2.29,1.9,4.63,2.67,7.01-2.45.55-4.92.97-7.42,1.27.84-1.33,1.66-2.69,2.44-4.05Zm2.27-12.1c-.73-1.4-1.5-2.78-2.29-4.14h0c-.77-1.34-1.58-2.67-2.42-3.98,2.53.32,4.97.75,7.25,1.27-.73,2.33-1.58,4.61-2.54,6.85Zm-16.27-17.79h0c1.65,1.81,3.21,3.7,4.68,5.66-3.13-.15-6.26-.15-9.39,0,1.54-2.04,3.13-3.94,4.72-5.66ZM21.47,3.95c2.66-1.54,8.54.66,14.74,6.17.4.35.79.72,1.19,1.1-2.44,2.65-4.7,5.45-6.77,8.4-3.57.32-7.11.87-10.61,1.66-.2-.81-.38-1.63-.55-2.45h0c-1.5-7.65-.51-13.42,1.99-14.87Zm-3.88,41.7c-.66-.19-1.32-.39-1.96-.61-3.87-1.32-7.07-3.05-9.27-4.94-1.97-1.69-2.96-3.37-2.96-4.74,0-2.9,4.31-6.6,11.51-9.11.9-.31,1.82-.6,2.74-.86,1.07,3.43,2.36,6.79,3.87,10.06-1.53,3.31-2.84,6.71-3.92,10.2Zm18.4,15.51c-3.08,2.7-6.17,4.62-8.9,5.58h0c-2.45.87-4.4.89-5.57.21-2.51-1.45-3.55-7.04-2.13-14.55.17-.88.36-1.77.58-2.65,3.53.76,7.11,1.28,10.71,1.55,2.09,2.96,4.37,5.78,6.82,8.44-.49.49-1,.95-1.51,1.4Zm3.88-3.84c-1.61-1.74-3.22-3.67-4.78-5.74,1.52.06,3.07.09,4.65.09s3.22-.03,4.8-.11c-1.46,2-3.02,3.92-4.67,5.75h0Zm20.62,4.73c-.47,2.56-1.43,4.26-2.6,4.94-2.51,1.45-7.86-.44-13.64-5.42-.66-.57-1.32-1.18-2-1.82,2.41-2.67,4.63-5.51,6.66-8.48,3.62-.31,7.22-.86,10.76-1.66.16.66.31,1.3.43,1.93h0c.8,4.02.91,7.66.38,10.51Zm2.88-16.99h0c-.43.14-.88.28-1.33.42-1.11-3.45-2.46-6.82-4.03-10.09,1.51-3.22,2.8-6.55,3.87-9.94.81.24,1.6.49,2.36.75,7.35,2.54,11.84,6.29,11.84,9.18,0,3.08-4.85,7.08-12.71,9.69Z"/>
  <path class="cls-1" d="m39.74,42.48c3.93.01,7.13-3.16,7.14-7.1.01-3.93-3.16-7.13-7.1-7.14-3.93-.01-7.13,3.16-7.14,7.1,0,0,0,.02,0,.02,0,3.92,3.17,7.11,7.09,7.12,0,0,0,0,0,0Z"/>
</svg>