<?xml version="1.0" encoding="UTF-8"?>
<svg xmlns="http://www.w3.org/2000/svg" xmlns:xlink="http://www.w3.org/1999/xlink" viewBox="0 0 270 270">
  <defs>
    <style>
      .cls-1 {
        fill: url(#linear-gradient);
      }
    </style>
    <linearGradient id="linear-gradient" x1="81.85" y1="42.31" x2="169.11" y2="195.82" gradientUnits="userSpaceOnUse">
      <stop offset="0" stop-color="#b1fce8"/>
      <stop offset="1" stop-color="#52c5e8"/>
    </linearGradient>
  </defs>
  <g id="Layer_1" data-name="Layer 1">
    <rect width="270" height="270" rx="20" ry="20"/>
  </g>
  <g id="Layer_2" data-name="Layer 2">
    <path class="cls-1" d="m15.96,199.82V46.53h54.92c12.6,0,22.73,1.58,30.39,4.73,7.65,3.15,13.24,7.84,16.77,14.07,3.52,6.23,5.29,13.99,5.29,23.3,0,7.35-1.61,13.84-4.84,19.47-3.23,5.63-7.62,10.02-13.17,13.17-5.55,3.15-11.86,4.73-18.91,4.73l.68-7.2c8.85,0,16.21,1.65,22.06,4.95,5.85,3.3,10.28,7.8,13.28,13.51,3,5.7,4.5,12.15,4.5,19.36,0,14.41-4.39,25.21-13.17,32.41-8.78,7.2-21.72,10.8-38.83,10.8H15.96ZM48.83,63.41v117.95l-11.7-13.06h37.36c5.85,0,10.47-1.42,13.84-4.28,3.38-2.85,5.06-6.75,5.06-11.7,0-5.4-1.61-9.45-4.84-12.15-3.23-2.7-7.77-4.05-13.62-4.05h-37.81v-28.36h34.44c6,0,10.5-1.2,13.51-3.6,3-2.4,4.5-6.15,4.5-11.25,0-4.65-1.54-8.29-4.61-10.92-3.08-2.62-7.54-3.94-13.39-3.94h-33.54l10.8-14.63Zm125.6,62.35h27.46c8.25,0,14.67-2.06,19.24-6.19,4.58-4.13,6.86-9.94,6.86-17.44,0-7.95-2.29-13.92-6.86-17.89-4.58-3.97-10.92-5.96-19.02-5.96h-27.91l7.43-7.43v128.97h-32.86V46.53h55.6c11.55,0,21.61,2.25,30.16,6.75,8.55,4.5,15.19,10.92,19.92,19.24s7.09,18.2,7.09,29.6-2.36,21.27-7.09,29.6c-4.73,8.33-11.4,14.71-20.03,19.13-8.63,4.43-18.65,6.64-30.05,6.64h-29.94v-31.74Z"/>
  </g>
</svg>