<?xml version="1.0" standalone="no"?>
<!DOCTYPE svg PUBLIC "-//W3C//DTD SVG 20010904//EN"
 "http://www.w3.org/TR/2001/REC-SVG-20010904/DTD/svg10.dtd">
<svg version="1.0" xmlns="http://www.w3.org/2000/svg"
 width="700.000000pt" height="700.000000pt" viewBox="0 0 700.000000 700.000000"
 preserveAspectRatio="xMidYMid meet">
<metadata>
Created by potrace 1.14, written by Peter Selinger 2001-2017
</metadata>
<g transform="translate(0.000000,700.000000) scale(0.100000,-0.100000)"
fill="#000000" stroke="none">
<path d="M398 6984 c-187 -45 -338 -198 -383 -386 -22 -95 -22 -6101 0 -6196
45 -191 196 -342 387 -387 95 -22 6101 -22 6196 0 191 45 342 196 387 387 22
95 22 6101 0 6196 -45 191 -196 342 -387 387 -92 21 -6111 21 -6200 -1z m1887
-1222 c174 -31 286 -65 410 -127 310 -153 461 -398 495 -806 17 -197 -7 -376
-71 -530 -61 -150 -198 -317 -333 -406 l-68 -46 79 -41 c248 -129 392 -320
466 -615 17 -70 21 -117 21 -251 0 -248 -31 -397 -120 -571 -164 -318 -491
-494 -1004 -539 -66 -5 -463 -10 -926 -10 l-811 0 -6 437 c-4 240 -7 1133 -7
1985 l0 1549 878 -3 c847 -4 881 -5 997 -26z m3243 17 c195 -21 365 -70 527
-150 378 -189 620 -526 702 -979 24 -135 24 -457 -1 -595 -96 -530 -397 -885
-890 -1050 -202 -68 -282 -77 -743 -82 l-413 -5 0 -549 0 -549 -425 0 -425 0
0 1985 0 1985 785 0 c490 0 822 -4 883 -11z"/>
<path d="M1270 4596 l0 -386 353 0 c275 0 366 4 415 15 124 29 210 93 254 190
20 43 23 66 23 170 0 102 -3 127 -22 167 -29 63 -97 135 -158 165 -103 53
-125 56 -507 60 l-358 5 0 -386z"/>
<path d="M1260 3055 l0 -415 388 0 c428 0 466 4 574 62 71 38 131 101 166 176
25 52 27 68 27 177 0 101 -4 129 -23 176 -30 76 -87 138 -161 178 -105 56
-153 61 -583 61 l-388 0 0 -415z"/>
<path d="M4710 4356 l0 -616 318 0 c275 0 329 3 412 20 132 27 228 76 311 159
111 111 159 242 159 436 0 318 -140 508 -435 592 -50 14 -120 17 -412 21
l-353 4 0 -616z"/>
</g>
</svg>
