<?xml version="1.0" standalone="no"?>
<!DOCTYPE svg PUBLIC "-//W3C//DTD SVG 20010904//EN"
 "http://www.w3.org/TR/2001/REC-SVG-20010904/DTD/svg10.dtd">
<svg version="1.0" xmlns="http://www.w3.org/2000/svg"
 width="261.000000pt" height="261.000000pt" viewBox="0 0 261.000000 261.000000"
 preserveAspectRatio="xMidYMid meet">
<metadata>
Created by potrace 1.14, written by Peter Selinger 2001-2017
</metadata>
<g transform="translate(0.000000,261.000000) scale(0.100000,-0.100000)"
fill="#000000" stroke="none">
<path d="M281 2599 c-101 -20 -197 -94 -243 -186 l-23 -48 -3 -1047 c-2 -1033
-2 -1047 18 -1101 29 -77 88 -140 168 -179 l67 -33 1045 0 1045 0 55 26 c70
33 136 99 169 169 l26 55 0 1050 0 1050 -22 47 c-32 71 -103 141 -176 174
l-62 29 -1010 2 c-556 0 -1030 -3 -1054 -8z m1465 -532 l439 -253 3 -57 3 -57
-41 0 c-39 0 -40 1 -40 34 0 30 -5 37 -42 58 -24 14 -201 115 -394 226 -193
111 -357 202 -364 202 -11 0 -676 -376 -772 -437 l-38 -23 0 -459 0 -458 368
-211 c202 -116 375 -214 385 -218 16 -6 17 3 15 132 l-3 139 -245 143 c-135
78 -251 150 -258 159 -9 13 -12 90 -10 327 l3 310 270 158 c149 87 275 158
281 158 6 0 94 -49 195 -108 101 -60 223 -131 271 -158 l88 -49 0 -462 c0
-255 3 -463 8 -462 4 0 59 31 122 68 l115 67 3 42 c3 42 3 42 43 42 l39 0 0
-62 0 -63 -441 -254 c-346 -200 -445 -252 -458 -245 -9 6 -206 120 -438 254
l-423 243 0 511 1 511 437 252 c240 139 438 252 438 253 1 0 199 -114 440
-253z"/>
<path d="M1090 1739 c-113 -66 -211 -123 -219 -128 -9 -6 0 -15 33 -35 25 -15
126 -73 225 -130 l179 -104 217 127 c120 69 218 130 217 135 0 11 -422 256
-437 255 -5 0 -102 -54 -215 -120z"/>
<path d="M820 1283 l0 -259 220 -127 c121 -70 223 -127 225 -127 3 0 5 116 5
258 l0 257 -217 125 c-119 69 -221 127 -225 128 -4 2 -8 -113 -8 -255z"/>
<path d="M1570 1414 c-118 -69 -218 -128 -223 -133 -4 -4 -6 -190 -5 -414 l3
-406 215 125 c118 69 218 129 223 133 4 4 6 190 5 413 l-3 406 -215 -124z"/>
</g>
</svg>
