{
	"asset":{
		"generator":"Khronos glTF Blender I/O v3.6.28",
		"version":"2.0"
	},
	"scene":0,
	"scenes":[
		{
			"name":"Scene",
			"nodes":[
				0
			]
		}
	],
	"nodes":[
		{
			"mesh":0,
			"name":"Suzanne",
			"translation":[
				0,
				0,
				-21.951984405517578
			]
		}
	],
	"animations":[
		{
			"channels":[
				{
					"sampler":0,
					"target":{
						"node":0,
						"path":"translation"
					}
				},
				{
					"sampler":1,
					"target":{
						"node":0,
						"path":"rotation"
					}
				}
			],
			"name":"Scene",
			"samplers":[
				{
					"input":16,
					"interpolation":"LINEAR",
					"output":17
				},
				{
					"input":16,
					"interpolation":"LINEAR",
					"output":18
				}
			]
		}
	],
	"materials":[
		{
			"doubleSided":true,
			"name":"purple",
			"pbrMetallicRoughness":{
				"baseColorFactor":[
					0.8000000715255737,
					0.03242919594049454,
					0.16180530190467834,
					1
				],
				"metallicFactor":0.78899085521698,
				"roughnessFactor":0.3165137767791748
			}
		},
		{
			"doubleSided":true,
			"name":"Material.001",
			"pbrMetallicRoughness":{
				"baseColorFactor":[
					0.800000011920929,
					0.800000011920929,
					0.800000011920929,
					1
				],
				"metallicFactor":0.3552631437778473,
				"roughnessFactor":0.2368420958518982
			}
		},
		{
			"doubleSided":true,
			"name":"Material.002",
			"pbrMetallicRoughness":{
				"baseColorFactor":[
					0.6584160327911377,
					0.8000000715255737,
					0.5775497555732727,
					1
				],
				"metallicFactor":0,
				"roughnessFactor":0.5
			}
		},
		{
			"doubleSided":true,
			"name":"Material.003",
			"pbrMetallicRoughness":{
				"baseColorFactor":[
					0,
					0,
					0,
					1
				],
				"metallicFactor":0.6578947305679321,
				"roughnessFactor":0.25
			}
		}
	],
	"meshes":[
		{
			"name":"Suzanne",
			"primitives":[
				{
					"attributes":{
						"POSITION":0,
						"NORMAL":1,
						"TEXCOORD_0":2
					},
					"indices":3,
					"material":0
				},
				{
					"attributes":{
						"POSITION":4,
						"NORMAL":5,
						"TEXCOORD_0":6
					},
					"indices":7,
					"material":1
				},
				{
					"attributes":{
						"POSITION":8,
						"NORMAL":9,
						"TEXCOORD_0":10
					},
					"indices":11,
					"material":2
				},
				{
					"attributes":{
						"POSITION":12,
						"NORMAL":13,
						"TEXCOORD_0":14
					},
					"indices":15,
					"material":3
				}
			]
		}
	],
	"accessors":[
		{
			"bufferView":0,
			"componentType":5126,
			"count":2001,
			"max":[
				1.325934886932373,
				0.9392362236976624,
				0.8223199844360352
			],
			"min":[
				-1.325934886932373,
				-0.9704862236976624,
				-0.7782661318778992
			],
			"type":"VEC3"
		},
		{
			"bufferView":1,
			"componentType":5126,
			"count":2001,
			"type":"VEC3"
		},
		{
			"bufferView":2,
			"componentType":5126,
			"count":2001,
			"type":"VEC2"
		},
		{
			"bufferView":3,
			"componentType":5123,
			"count":11010,
			"type":"SCALAR"
		},
		{
			"bufferView":4,
			"componentType":5126,
			"count":17,
			"max":[
				0.4224938452243805,
				0.3154890537261963,
				0.8223199844360352
			],
			"min":[
				0.2834065556526184,
				0.1740400493144989,
				0.7938587069511414
			],
			"type":"VEC3"
		},
		{
			"bufferView":5,
			"componentType":5126,
			"count":17,
			"type":"VEC3"
		},
		{
			"bufferView":6,
			"componentType":5126,
			"count":17,
			"type":"VEC2"
		},
		{
			"bufferView":7,
			"componentType":5123,
			"count":48,
			"type":"SCALAR"
		},
		{
			"bufferView":8,
			"componentType":5126,
			"count":40,
			"max":[
				-0.2442220151424408,
				0.3440393805503845,
				0.8223198652267456
			],
			"min":[
				-0.44979748129844666,
				0.1348470151424408,
				0.7802373766899109
			],
			"type":"VEC3"
		},
		{
			"bufferView":9,
			"componentType":5126,
			"count":40,
			"type":"VEC3"
		},
		{
			"bufferView":10,
			"componentType":5126,
			"count":40,
			"type":"VEC2"
		},
		{
			"bufferView":11,
			"componentType":5123,
			"count":174,
			"type":"SCALAR"
		},
		{
			"bufferView":12,
			"componentType":5126,
			"count":105,
			"max":[
				0.1234809160232544,
				-0.12655074894428253,
				0.8208942413330078
			],
			"min":[
				-0.1234809011220932,
				-0.3350695073604584,
				0.7448437809944153
			],
			"type":"VEC3"
		},
		{
			"bufferView":13,
			"componentType":5126,
			"count":105,
			"type":"VEC3"
		},
		{
			"bufferView":14,
			"componentType":5126,
			"count":105,
			"type":"VEC2"
		},
		{
			"bufferView":15,
			"componentType":5123,
			"count":576,
			"type":"SCALAR"
		},
		{
			"bufferView":16,
			"componentType":5126,
			"count":100,
			"max":[
				4.166666666666667
			],
			"min":[
				0.041666666666666664
			],
			"type":"SCALAR"
		},
		{
			"bufferView":17,
			"componentType":5126,
			"count":100,
			"type":"VEC3"
		},
		{
			"bufferView":18,
			"componentType":5126,
			"count":100,
			"type":"VEC4"
		}
	],
	"bufferViews":[
		{
			"buffer":0,
			"byteLength":24012,
			"byteOffset":0,
			"target":34962
		},
		{
			"buffer":0,
			"byteLength":24012,
			"byteOffset":24012,
			"target":34962
		},
		{
			"buffer":0,
			"byteLength":16008,
			"byteOffset":48024,
			"target":34962
		},
		{
			"buffer":0,
			"byteLength":22020,
			"byteOffset":64032,
			"target":34963
		},
		{
			"buffer":0,
			"byteLength":204,
			"byteOffset":86052,
			"target":34962
		},
		{
			"buffer":0,
			"byteLength":204,
			"byteOffset":86256,
			"target":34962
		},
		{
			"buffer":0,
			"byteLength":136,
			"byteOffset":86460,
			"target":34962
		},
		{
			"buffer":0,
			"byteLength":96,
			"byteOffset":86596,
			"target":34963
		},
		{
			"buffer":0,
			"byteLength":480,
			"byteOffset":86692,
			"target":34962
		},
		{
			"buffer":0,
			"byteLength":480,
			"byteOffset":87172,
			"target":34962
		},
		{
			"buffer":0,
			"byteLength":320,
			"byteOffset":87652,
			"target":34962
		},
		{
			"buffer":0,
			"byteLength":348,
			"byteOffset":87972,
			"target":34963
		},
		{
			"buffer":0,
			"byteLength":1260,
			"byteOffset":88320,
			"target":34962
		},
		{
			"buffer":0,
			"byteLength":1260,
			"byteOffset":89580,
			"target":34962
		},
		{
			"buffer":0,
			"byteLength":840,
			"byteOffset":90840,
			"target":34962
		},
		{
			"buffer":0,
			"byteLength":1152,
			"byteOffset":91680,
			"target":34963
		},
		{
			"buffer":0,
			"byteLength":400,
			"byteOffset":92832
		},
		{
			"buffer":0,
			"byteLength":1200,
			"byteOffset":93232
		},
		{
			"buffer":0,
			"byteLength":1600,
			"byteOffset":94432
		}
	],
	"buffers":[
		{
			"byteLength":96032,
			"uri":"data:application/octet-stream;base64,"
		}
	]
}
