<?xml version="1.0" encoding="UTF-8"?>
<svg id="Layer_4" data-name="Layer 4" xmlns="http://www.w3.org/2000/svg" xmlns:xlink="http://www.w3.org/1999/xlink" viewBox="0 0 4.47 4.46">
  <defs>
    <style>
      .cls-1 {
        fill: url(#linear-gradient);
      }
    </style>
    <linearGradient id="linear-gradient" x1="793.71" y1="2109.39" x2="794.27" y2="2109.39" gradientTransform="translate(-6349.71 16877.32) scale(8 -8)" gradientUnits="userSpaceOnUse">
      <stop offset="0" stop-color="#ffa68d"/>
      <stop offset="1" stop-color="#fd3a84"/>
    </linearGradient>
  </defs>
  <path class="cls-1" d="m4.42.34l-1.9,2.2c-.05-.13-.13-.25-.23-.35-.1-.1-.22-.18-.35-.24L4.13.05c.08-.07.2-.07.28,0,0,0,0,0,0,0,.08.07.09.2.01.27,0,0,0,0,0,0h0ZM1.13,2.66c-.18,0-.36.07-.48.2-.2.2-.49,1.08-.65,1.61.35-.24.76-.39,1.18-.46.2-.04.33-.06.43-.18.21-.23.26-.72,0-.97-.13-.13-.3-.2-.48-.2h0Zm.67-.59l-.5.44c.16.03.32.11.43.23.12.13.19.29.21.46l.45-.52c-.04-.14-.12-.27-.22-.38-.1-.11-.23-.19-.37-.23h0Z"/>
</svg>