<?xml version="1.0" encoding="UTF-8"?>
<svg xmlns="http://www.w3.org/2000/svg" xmlns:xlink="http://www.w3.org/1999/xlink" viewBox="0 0 67.8 67.8">
  <defs>
    <style>
      .cls-1 {
        isolation: isolate;
      }

      .cls-2 {
        mix-blend-mode: color-dodge;
      }

      .cls-3 {
        fill: url(#linear-gradient);
      }
    </style>
    <linearGradient id="linear-gradient" x1="33.9" y1="-34.01" x2="33.9" y2="82.57" gradientUnits="userSpaceOnUse">
      <stop offset="0" stop-color="#fff"/>
      <stop offset="1" stop-color="#2d2d2c"/>
    </linearGradient>
  </defs>
  <g class="cls-1">
    <g id="Layer_1" data-name="Layer 1">
      <g class="cls-2">
        <path class="cls-3" d="m33.9,0C15.17,0,0,15.17,0,33.9s15.17,33.9,33.9,33.9,33.9-15.17,33.9-33.9S52.63,0,33.9,0Zm9.73,21.26s-3.59-.03-4.49-.03c-1.36,0-2.26,1.18-2.26,2.37v4.99h6.75l-.77,6.8h-6.06v17.36h-6.86v-17.27h-5.79v-6.96h5.88v-6.57c0-3.66,4.07-6.89,6.9-6.89.42,0,6.69.06,6.69.06v6.15Z"/>
      </g>
    </g>
  </g>
</svg>