<?xml version="1.0" encoding="UTF-8"?>
<svg id="Layer_1" data-name="Layer 1" xmlns="http://www.w3.org/2000/svg" xmlns:xlink="http://www.w3.org/1999/xlink" viewBox="0 0 60.14 78.95">
  <defs>
    <style>
      .cls-1 {
        fill: url(#linear-gradient-2);
      }

      .cls-2 {
        fill: url(#linear-gradient);
      }
    </style>
    <linearGradient id="linear-gradient" x1="30.06" y1="8.02" x2="30.06" y2="86.95" gradientTransform="translate(.01 86.97) scale(1 -1)" gradientUnits="userSpaceOnUse">
      <stop offset="0" stop-color="#d63030"/>
      <stop offset="1" stop-color="#f77b1e"/>
    </linearGradient>
    <linearGradient id="linear-gradient-2" x1="32.37" y1="17.26" x2="32.37" y2="86.96" gradientTransform="translate(.01 86.97) scale(1 -1)" gradientUnits="userSpaceOnUse">
      <stop offset="0" stop-color="#ffe59a"/>
      <stop offset="1" stop-color="#ffffd5"/>
    </linearGradient>
  </defs>
  <path class="cls-2" d="m57.38,36.35c-.38-.82-1.2-1.35-2.1-1.35s-1.72.53-2.1,1.35c-.54,1.18-1.17,2.31-1.89,3.4-1.1-2.54-1.3-5.37-1.5-8.31-.41-5.97-.88-12.72-9.43-17-.72-.35-1.57-.32-2.25.1s-1.1,1.17-1.1,1.97v9.72c0,1.24-.98,2.25-2.2,2.25s-2.43-.8-2.43-2.27v-4.33C32.38,12.13,26.17,3.2,16.92.12c-.89-.3-1.86-.03-2.48.68-.61.71-.74,1.71-.32,2.55,8.8,17.61-.51,30.73-4.98,36.26l-2.35-3.56c-.46-.7-1.29-1.12-2.11-1.03-.84.06-1.58.58-1.93,1.34-1.83,3.98-2.76,8.2-2.76,12.53,0,16.58,13.43,30.06,29.94,30.06s30.2-13.49,30.2-30.06c0-4.33-.93-8.55-2.76-12.53h0Z"/>
  <path class="cls-1" d="m30.07,37.32c-8.93,0-16.19,7.26-16.19,16.19s7.26,16.19,16.19,16.19,16.19-7.26,16.19-16.19-7.26-16.19-16.19-16.19h0Zm5.11,21.3c-.9.9-2.37.9-3.27,0l-3.47-3.47c-.43-.43-.68-1.02-.68-1.64v-4.63c0-1.28,1.03-2.31,2.31-2.31s2.31,1.03,2.31,2.31v3.67l2.79,2.79c.9.9.9,2.37,0,3.27ZM6.94,18.81c-1.28,0-2.31,1.03-2.31,2.31v4.63c0,1.28,1.03,2.31,2.31,2.31s2.31-1.03,2.31-2.31v-4.63c0-1.28-1.03-2.31-2.31-2.31Zm50.89,0c-1.28,0-2.31,1.03-2.31,2.31v4.63c0,1.28,1.03,2.31,2.31,2.31s2.31-1.03,2.31-2.31v-4.63c0-1.28-1.03-2.31-2.31-2.31Zm-23.13-9.56c1.28,0,2.31-1.03,2.31-2.31V2.31c0-1.28-1.03-2.31-2.31-2.31s-2.31,1.03-2.31,2.31v4.63c0,1.28,1.03,2.31,2.31,2.31Z"/>
</svg>