<?xml version="1.0" encoding="UTF-8"?>
<svg xmlns="http://www.w3.org/2000/svg" xmlns:xlink="http://www.w3.org/1999/xlink" viewBox="0 0 67.8 67.8">
  <defs>
    <style>
      .cls-1 {
        fill: url(#linear-gradient-2);
      }

      .cls-2 {
        isolation: isolate;
      }

      .cls-3 {
        mix-blend-mode: color-dodge;
      }

      .cls-4 {
        fill: url(#linear-gradient-3);
      }

      .cls-5 {
        fill: url(#linear-gradient);
      }
    </style>
    <linearGradient id="linear-gradient" x1="33.91" y1="-34.01" x2="33.91" y2="82.57" gradientUnits="userSpaceOnUse">
      <stop offset="0" stop-color="#fff"/>
      <stop offset="1" stop-color="#2d2d2c"/>
    </linearGradient>
    <linearGradient id="linear-gradient-2" x1="33.91" y1="-34.01" x2="33.91" y2="82.57" xlink:href="#linear-gradient"/>
    <linearGradient id="linear-gradient-3" x1="33.9" y1="-34.01" x2="33.9" y2="82.57" xlink:href="#linear-gradient"/>
  </defs>
  <g class="cls-2">
    <g id="Layer_1" data-name="Layer 1">
      <g class="cls-3">
        <path class="cls-5" d="m41.1,19.27h-14.39c-4.1,0-7.44,3.33-7.44,7.44v14.39c0,4.1,3.33,7.44,7.44,7.44h14.39c4.1,0,7.44-3.33,7.44-7.44v-14.39c-.02-4.11-3.35-7.44-7.44-7.44Zm-7.2,24.26c-5.3,0-9.63-4.32-9.63-9.63s4.32-9.63,9.63-9.63,9.63,4.32,9.63,9.63-4.32,9.63-9.63,9.63h0Zm10.11-18.19c-.9,0-1.63-.72-1.63-1.63s.72-1.63,1.63-1.63,1.63.72,1.63,1.63-.72,1.63-1.63,1.63Z"/>
        <circle class="cls-1" cx="33.91" cy="33.9" r="5.85"/>
        <path class="cls-4" d="m33.9,0C15.17,0,0,15.17,0,33.9s15.17,33.9,33.9,33.9,33.9-15.17,33.9-33.9S52.63,0,33.9,0Zm18.83,41.1c0,6.42-5.21,11.63-11.63,11.63h-14.39c-6.42,0-11.63-5.21-11.63-11.63v-14.39c0-6.42,5.21-11.63,11.63-11.63h14.39c6.42,0,11.63,5.21,11.63,11.63v14.39Z"/>
      </g>
    </g>
  </g>
</svg>