<?xml version="1.0" encoding="UTF-8"?>
<svg id="Layer_1" data-name="Layer 1" xmlns="http://www.w3.org/2000/svg" viewBox="0 0 361.57 361.57">
  <defs>
    <style>
      .cls-1 {
        fill: none;
        stroke: #d31e4e;
        stroke-miterlimit: 10;
      }
    </style>
  </defs>
  <path class="cls-1" d="m209.8,2.86L2.86,209.8c.96,5.92,2.2,11.74,3.72,17.45L227.24,6.57c-5.71-1.52-11.53-2.76-17.45-3.72Z"/>
  <path class="cls-1" d="m227.24,6.57L6.57,227.24c1.45,5.47,3.14,10.83,5.08,16.08L243.33,11.66c-5.25-1.94-10.62-3.63-16.08-5.08Z"/>
  <path class="cls-1" d="m296.81,42.84L42.84,296.81c3.22,3.82,6.58,7.52,10.1,11.07L307.88,52.93c-3.54-3.52-7.24-6.88-11.07-10.1Z"/>
  <path class="cls-1" d="m284.86,33.62L33.62,284.86c2.91,4.11,5.98,8.1,9.22,11.95L296.81,42.84c-3.85-3.24-7.84-6.3-11.95-9.22Z"/>
  <path class="cls-1" d="m258.21,17.94L17.94,258.21c2.25,4.72,4.72,9.32,7.36,13.81L272.01,25.3c-4.49-2.64-9.08-5.11-13.81-7.36Z"/>
  <path class="cls-1" d="m272.01,25.3L25.3,272.01c2.59,4.41,5.37,8.69,8.32,12.85L284.86,33.62c-4.16-2.95-8.44-5.72-12.85-8.32Z"/>
  <path class="cls-1" d="m243.33,11.66L11.66,243.33c1.88,5.07,3.98,10.03,6.29,14.88L258.21,17.94c-4.85-2.31-9.81-4.41-14.88-6.29Z"/>
  <path class="cls-1" d="m12.9,115.09L115.09,12.9C68.38,31.19,31.19,68.38,12.9,115.09Z"/>
  <path class="cls-1" d="m115.09,12.9L12.9,115.09c-3.77,9.64-6.78,19.66-8.86,30.02L145.11,4.04c-10.36,2.08-20.38,5.08-30.02,8.86Z"/>
  <path class="cls-1" d="m190.71.78L.78,190.71c.35,6.46,1.06,12.83,2.07,19.09L209.8,2.86c-6.26-1.01-12.63-1.72-19.09-2.07Z"/>
  <path class="cls-1" d="m180.78.5c-3.82,0-7.6.16-11.35.39L.89,169.43c-.23,3.76-.39,7.54-.39,11.35,0,3.33.11,6.64.28,9.92L190.71.78c-3.29-.18-6.59-.28-9.92-.28Z"/>
  <path class="cls-1" d="m145.11,4.04L4.04,145.11c-1.59,7.93-2.64,16.05-3.15,24.32L169.43.89c-8.27.51-16.39,1.56-24.32,3.15Z"/>
  <path class="cls-1" d="m358.48,150.49l-208,208c6.22,1.05,12.55,1.8,18.97,2.19l191.22-191.22c-.4-6.42-1.14-12.75-2.19-18.97Z"/>
  <path class="cls-1" d="m361.07,180.78c0-3.81-.16-7.58-.39-11.33l-191.22,191.22c3.75.23,7.52.39,11.33.39,3.26,0,6.5-.1,9.72-.27l170.3-170.3c.17-3.22.27-6.46.27-9.72Z"/>
  <path class="cls-1" d="m360.8,190.5l-170.3,170.3c8.2-.44,16.24-1.45,24.11-2.95l143.24-143.24c1.5-7.87,2.51-15.91,2.95-24.11Z"/>
  <path class="cls-1" d="m357.85,214.61l-143.24,143.24c10.11-1.92,19.93-4.67,29.37-8.2l105.67-105.67c3.53-9.44,6.28-19.25,8.2-29.37Z"/>
  <path class="cls-1" d="m349.65,243.98l-105.67,105.67c48.72-18.24,87.43-56.95,105.67-105.67Z"/>
  <path class="cls-1" d="m354.66,133.15l-221.51,221.51c5.67,1.55,11.46,2.83,17.34,3.82l208-208c-1-5.88-2.27-11.67-3.82-17.34Z"/>
  <path class="cls-1" d="m327.32,75.82l-251.5,251.5c4.13,2.97,8.39,5.78,12.77,8.39l247.12-247.12c-2.62-4.39-5.43-8.64-8.39-12.77Z"/>
  <path class="cls-1" d="m318.03,63.95L63.95,318.03c3.82,3.26,7.79,6.35,11.88,9.29l251.5-251.5c-2.93-4.09-6.03-8.05-9.29-11.88Z"/>
  <path class="cls-1" d="m349.48,117.16l-232.33,232.33c5.22,1.97,10.55,3.69,15.99,5.18l221.51-221.51c-1.49-5.44-3.21-10.77-5.18-15.99Z"/>
  <path class="cls-1" d="m307.88,52.93L52.93,307.88c3.52,3.54,7.21,6.91,11.01,10.15L318.03,63.95c-3.24-3.8-6.61-7.49-10.15-11.01Z"/>
  <path class="cls-1" d="m343.14,102.33l-240.81,240.81c4.82,2.33,9.78,4.44,14.82,6.34l232.33-232.33c-1.91-5.05-4.01-10-6.34-14.82Z"/>
  <path class="cls-1" d="m335.71,88.6l-247.12,247.12c4.46,2.66,9.04,5.15,13.74,7.43l240.81-240.81c-2.28-4.7-4.77-9.27-7.43-13.74Z"/>
</svg>