<?xml version="1.0" encoding="UTF-8"?>
<svg id="Layer_1" data-name="Layer 1" xmlns="http://www.w3.org/2000/svg" viewBox="0 0 43.4 29.38">
  <defs>
    <style>
      .cls-1 {
        fill: #fff;
      }
    </style>
  </defs>
  <path class="cls-1" d="m42.82,2.47l-15.01,11.43,15.04,12.94c.35-.66.55-1.41.55-2.21V4.74c0-.82-.21-1.59-.58-2.27Z"/>
  <path class="cls-1" d="m38.66,0H4.74c-.93,0-1.8.27-2.54.74l18.72,14.03c.47.34,1.1.34,1.57,0L41.03.64c-.7-.41-1.51-.64-2.37-.64Z"/>
  <path class="cls-1" d="m25.75,15.48l-1.74,1.33c-.69.51-1.49.76-2.3.76s-1.61-.25-2.3-.76h0s-1.74-1.31-1.74-1.31L2.31,28.71c.71.43,1.54.67,2.43.67h33.92c.89,0,1.73-.25,2.45-.68l-15.36-13.21Z"/>
  <path class="cls-1" d="m.49,2.64c-.32.63-.49,1.35-.49,2.11v19.89c0,.8.2,1.56.56,2.22l15.02-12.92L.49,2.64Z"/>
</svg>