<?xml version="1.0" encoding="UTF-8"?>
<svg id="Layer_1" data-name="Layer 1" xmlns="http://www.w3.org/2000/svg" viewBox="0 0 29.38 29.38">
  <defs>
    <style>
      .cls-1 {
        fill: #fff;
      }
    </style>
  </defs>
  <path class="cls-1" d="m22.34,19.43c-.96-.95-2.16-.95-3.11,0-.73.72-1.46,1.44-2.17,2.18-.2.2-.36.24-.6.11-.47-.26-.97-.46-1.42-.75-2.11-1.33-3.88-3.03-5.44-4.95-.78-.95-1.47-1.97-1.95-3.12-.1-.23-.08-.39.11-.57.73-.7,1.44-1.42,2.15-2.15,1-1,1-2.18,0-3.19-.57-.57-1.14-1.14-1.71-1.71-.59-.59-1.17-1.18-1.76-1.76-.96-.94-2.16-.94-3.11,0-.73.72-1.44,1.46-2.18,2.17C.44,6.35.09,7.15.02,8.09c-.12,1.52.26,2.96.78,4.36,1.08,2.9,2.71,5.47,4.7,7.83,2.68,3.19,5.89,5.72,9.63,7.54,1.69.82,3.44,1.45,5.34,1.55,1.31.07,2.45-.26,3.36-1.28.62-.7,1.33-1.33,1.99-2,.98-.99.98-2.19.01-3.17-1.16-1.17-2.33-2.33-3.5-3.49Z"/>
  <path class="cls-1" d="m21.17,14.56l2.26-.39c-.35-2.07-1.33-3.95-2.82-5.44-1.57-1.57-3.56-2.56-5.75-2.87l-.32,2.27c1.69.24,3.23,1,4.45,2.22,1.15,1.15,1.9,2.6,2.18,4.21Z"/>
  <path class="cls-1" d="m24.7,4.76C22.09,2.15,18.8.51,15.16,0l-.32,2.27c3.14.44,5.99,1.86,8.24,4.11,2.13,2.13,3.53,4.83,4.04,7.79l2.26-.39c-.59-3.44-2.21-6.55-4.68-9.03Z"/>
</svg>