<?xml version="1.0" encoding="UTF-8"?>
<svg id="Layer_1" data-name="Layer 1" xmlns="http://www.w3.org/2000/svg" xmlns:xlink="http://www.w3.org/1999/xlink" viewBox="0 0 79.64 78.95">
  <defs>
    <style>
      .cls-1 {
        fill: url(#linear-gradient-2);
      }

      .cls-2 {
        fill: url(#linear-gradient-6);
      }

      .cls-3 {
        fill: url(#linear-gradient-5);
      }

      .cls-4 {
        fill: url(#linear-gradient-3);
      }

      .cls-5 {
        fill: url(#linear-gradient);
      }

      .cls-6 {
        fill: url(#linear-gradient-4);
      }
    </style>
    <linearGradient id="linear-gradient" x1="27.14" y1=".92" x2="53.19" y2="80.58" gradientUnits="userSpaceOnUse">
      <stop offset="0" stop-color="#f77b1e"/>
      <stop offset="1" stop-color="#d63030"/>
    </linearGradient>
    <linearGradient id="linear-gradient-2" x1="46.75" y1="42.25" x2="52.92" y2="61.13" xlink:href="#linear-gradient"/>
    <linearGradient id="linear-gradient-3" x1="34.84" y1="27.75" x2="43.1" y2="53" gradientUnits="userSpaceOnUse">
      <stop offset="0" stop-color="#ffe59a"/>
      <stop offset="1" stop-color="#ffffd5"/>
    </linearGradient>
    <linearGradient id="linear-gradient-4" x1="26.83" y1="17.85" x2="33.01" y2="36.75" xlink:href="#linear-gradient"/>
    <linearGradient id="linear-gradient-5" x1="27.76" y1="20.7" x2="32.07" y2="33.9" xlink:href="#linear-gradient-3"/>
    <linearGradient id="linear-gradient-6" x1="47.67" y1="45.1" x2="51.98" y2="58.29" xlink:href="#linear-gradient-3"/>
  </defs>
  <path class="cls-5" d="m79.11,42.66l-3.11-6.84c-.24-.51-.33-1.09-.24-1.65l1.07-7.44c.32-2.25-.69-4.48-2.6-5.72l-6.33-4.07c-.48-.31-.85-.74-1.1-1.25l-3.11-6.84c-.95-2.07-3.01-3.4-5.29-3.4h-7.51c-.57,0-1.13-.16-1.61-.47l-6.31-4.05c-1.91-1.24-4.37-1.24-6.29,0l-6.31,4.05c-.48.31-1.04.47-1.61.47h-7.51c-2.28,0-4.34,1.33-5.29,3.4l-3.11,6.84c-.24.51-.62.95-1.1,1.25l-6.33,4.07c-1.91,1.23-2.93,3.47-2.6,5.72l1.07,7.44c.08.56,0,1.14-.24,1.65l-3.11,6.84c-.94,2.07-.59,4.5.9,6.22l4.92,5.67c.37.43.61.96.7,1.52l1.07,7.44c.32,2.25,1.93,4.1,4.11,4.74l7.21,2.12c.54.17,1.03.49,1.41.91l4.92,5.67c1.48,1.72,3.84,2.41,6.02,1.76l7.21-2.1c.55-.17,1.13-.17,1.68,0l7.21,2.1c2.18.64,4.53-.05,6.02-1.76l4.92-5.67c.38-.42.87-.74,1.41-.91l7.21-2.12c2.18-.63,3.79-2.49,4.11-4.74l1.07-7.44c.08-.56.32-1.09.7-1.52l4.92-5.67c1.49-1.72,1.84-4.15.9-6.22Z"/>
  <path class="cls-1" d="m59.15,52.74c-.61,5.14-5.25,8.83-10.4,8.26-12.28-1.87-10.25-19.64,2.15-18.65,5.14.6,8.83,5.24,8.25,10.38Z"/>
  <path class="cls-4" d="m20.85,58.66c-.55-.55-.55-1.45,0-2,0,0,0,0,0,0L55.05,22.03c.55-.56,1.45-.56,2.01,0,.56.55.56,1.45,0,2.01L22.87,58.64c-.55.56-1.45.57-2.01.02,0,0,0,0,0,0Z"/>
  <path class="cls-6" d="m24.07,19.93c9.94-7.43,21.16,6.7,11.68,14.69-9.94,7.44-21.15-6.7-11.68-14.69Z"/>
  <path class="cls-3" d="m30.66,20.78c8.54,1.18,7.09,13.78-1.49,12.98-8.58-1.23-7.09-13.72,1.49-12.98Z"/>
  <path class="cls-2" d="m49.08,58.17c-8.58-1.27-7.08-13.73,1.49-13,8.54,1.25,7.12,13.73-1.49,13Z"/>
</svg>