<?xml version="1.0" encoding="UTF-8"?>
<svg id="Layer_1" data-name="Layer 1" xmlns="http://www.w3.org/2000/svg" xmlns:xlink="http://www.w3.org/1999/xlink" viewBox="0 0 105.26 78.95">
  <defs>
    <style>
      .cls-1 {
        fill: url(#linear-gradient-2);
      }

      .cls-2 {
        fill: url(#linear-gradient-6);
      }

      .cls-3 {
        fill: url(#linear-gradient-5);
      }

      .cls-4 {
        fill: url(#linear-gradient-3);
      }

      .cls-5 {
        fill: url(#linear-gradient);
      }

      .cls-6 {
        fill: url(#linear-gradient-4);
      }
    </style>
    <linearGradient id="linear-gradient" x1="74.44" y1="165.64" x2="74.44" y2="170.48" gradientTransform="translate(-1570.54 3625.57) scale(21.33 -21.33)" gradientUnits="userSpaceOnUse">
      <stop offset="0" stop-color="#d63030"/>
      <stop offset="1" stop-color="#f77b1e"/>
    </linearGradient>
    <linearGradient id="linear-gradient-2" x1="74.37" y1="165.64" x2="74.37" y2="170.48" xlink:href="#linear-gradient"/>
    <linearGradient id="linear-gradient-3" x1="77.73" x2="77.73" xlink:href="#linear-gradient"/>
    <linearGradient id="linear-gradient-4" x1="77.8" y1="165.64" x2="77.8" y2="170.48" xlink:href="#linear-gradient"/>
    <linearGradient id="linear-gradient-5" x1="76.09" y1="165.64" x2="76.09" y2="170.48" xlink:href="#linear-gradient"/>
    <linearGradient id="linear-gradient-6" x1="76.09" y1="165.64" x2="76.09" y2="170.48" xlink:href="#linear-gradient"/>
  </defs>
  <circle class="cls-5" cx="17.54" cy="13.16" r="13.16"/>
  <path class="cls-1" d="m31.97,35.39c-8.97,5.6-14.43,15.43-14.43,26.01h-8.77c-4.84-.01-8.76-3.93-8.77-8.77v-8.77c.02-7.26,5.9-13.14,13.16-13.16h8.77c3.88,0,7.55,1.73,10.04,4.69Z"/>
  <circle class="cls-4" cx="87.72" cy="13.16" r="13.16"/>
  <path class="cls-6" d="m105.26,43.86v8.77c-.01,4.84-3.93,8.76-8.77,8.77h-8.77c0-10.58-5.46-20.41-14.43-26.01,2.49-2.97,6.17-4.68,10.04-4.69h8.77c7.26.02,13.14,5.9,13.16,13.16Z"/>
  <g>
    <circle class="cls-3" cx="52.63" cy="17.54" r="17.54"/>
    <path class="cls-2" d="m78.95,61.4v4.39c-.02,7.26-5.9,13.14-13.16,13.16h-26.32c-7.26-.02-13.14-5.9-13.16-13.16v-4.39c0-12.11,9.82-21.93,21.93-21.93h8.77c12.11,0,21.93,9.82,21.93,21.93Z"/>
  </g>
</svg>