<?xml version="1.0" encoding="UTF-8"?>
<svg id="Layer_1" data-name="Layer 1" xmlns="http://www.w3.org/2000/svg" xmlns:xlink="http://www.w3.org/1999/xlink" viewBox="0 0 112.07 72.63">
  <defs>
    <style>
      .cls-1 {
        fill: url(#linear-gradient-4);
      }

      .cls-1, .cls-2, .cls-3, .cls-4, .cls-5 {
        stroke: #a9d8ff;
        stroke-width: .85px;
      }

      .cls-1, .cls-2, .cls-4 {
        stroke-linecap: round;
        stroke-linejoin: round;
      }

      .cls-6 {
        fill: url(#linear-gradient-2);
      }

      .cls-2 {
        fill: url(#linear-gradient-6);
      }

      .cls-7 {
        letter-spacing: .08em;
      }

      .cls-3 {
        fill: url(#Sky);
      }

      .cls-3, .cls-5 {
        stroke-miterlimit: 10;
      }

      .cls-8 {
        letter-spacing: .15em;
      }

      .cls-9 {
        fill: #fff;
        font-family: LEMONMILK-Light, 'LEMON MILK';
        font-size: 20.73px;
        font-weight: 300;
      }

      .cls-4 {
        fill: url(#linear-gradient-5);
      }

      .cls-10 {
        fill: url(#linear-gradient-11);
      }

      .cls-5 {
        fill: url(#linear-gradient-3);
      }

      .cls-11 {
        fill: url(#linear-gradient-10);
      }

      .cls-12 {
        letter-spacing: .11em;
      }

      .cls-13 {
        fill: url(#linear-gradient-7);
      }

      .cls-14 {
        fill: url(#linear-gradient-9);
      }

      .cls-15 {
        fill: url(#linear-gradient);
      }

      .cls-16 {
        fill: url(#linear-gradient-8);
      }

      .cls-17 {
        fill: url(#linear-gradient-12);
      }

      .cls-18 {
        fill: url(#linear-gradient-13);
      }
    </style>
    <linearGradient id="linear-gradient" x1="61.69" y1="-698" x2="87.17" y2="-682.54" gradientTransform="translate(0 -655.79) scale(1 -1)" gradientUnits="userSpaceOnUse">
      <stop offset="0" stop-color="#000" stop-opacity="0"/>
      <stop offset=".05" stop-color="#010609" stop-opacity=".04"/>
      <stop offset=".15" stop-color="#041922" stop-opacity=".16"/>
      <stop offset=".26" stop-color="#0a374c" stop-opacity=".36"/>
      <stop offset=".4" stop-color="#126186" stop-opacity=".62"/>
      <stop offset=".55" stop-color="#1c95ce" stop-opacity=".96"/>
      <stop offset=".57" stop-color="#1e9cd7"/>
      <stop offset=".87" stop-color="#0075be"/>
      <stop offset=".99" stop-color="#005b97"/>
    </linearGradient>
    <linearGradient id="linear-gradient-2" x1="2841.72" y1="-698" x2="2867.2" y2="-682.54" gradientTransform="translate(2886.69 -655.79) rotate(-180)" xlink:href="#linear-gradient"/>
    <linearGradient id="linear-gradient-3" x1="66.96" y1="22.19" x2="39.18" y2="22.19" gradientTransform="matrix(1,0,0,1,0,0)" xlink:href="#linear-gradient"/>
    <linearGradient id="Sky" x1="66.09" y1="43.11" x2="35.53" y2="19.11" gradientUnits="userSpaceOnUse">
      <stop offset="0" stop-color="#cce0f4"/>
      <stop offset=".06" stop-color="#c2dcf2"/>
      <stop offset=".17" stop-color="#a9d2ee"/>
      <stop offset=".31" stop-color="#7fc2e7"/>
      <stop offset=".46" stop-color="#46abdd"/>
      <stop offset=".57" stop-color="#1e9cd7"/>
      <stop offset=".87" stop-color="#0075be"/>
      <stop offset=".99" stop-color="#005b97"/>
    </linearGradient>
    <linearGradient id="linear-gradient-4" x1="45.41" y1="24.76" x2="84.58" y2="51.85" gradientUnits="userSpaceOnUse">
      <stop offset="0" stop-color="#000"/>
      <stop offset=".05" stop-color="#010609"/>
      <stop offset=".15" stop-color="#041922"/>
      <stop offset=".26" stop-color="#0a374c"/>
      <stop offset=".4" stop-color="#126186"/>
      <stop offset=".55" stop-color="#1c95ce"/>
      <stop offset=".57" stop-color="#1e9cd7"/>
      <stop offset=".87" stop-color="#0075be"/>
      <stop offset=".99" stop-color="#005b97"/>
    </linearGradient>
    <linearGradient id="linear-gradient-5" x1="47.74" y1="21.38" x2="86.92" y2="48.47" xlink:href="#linear-gradient-4"/>
    <linearGradient id="linear-gradient-6" x1="52.49" y1="14.52" x2="91.67" y2="41.61" xlink:href="#linear-gradient-4"/>
    <linearGradient id="linear-gradient-7" x1=".26" y1="64.39" x2="108.7" y2="64.39" gradientUnits="userSpaceOnUse">
      <stop offset="0" stop-color="#fff"/>
      <stop offset=".38" stop-color="#dee3f1"/>
      <stop offset=".76" stop-color="#c5cde6"/>
      <stop offset=".98" stop-color="#bcc5e2"/>
    </linearGradient>
    <linearGradient id="linear-gradient-8" y1="64.25" x2="108.7" y2="64.25" xlink:href="#linear-gradient-7"/>
    <linearGradient id="linear-gradient-9" y1="64.25" x2="108.7" y2="64.25" xlink:href="#linear-gradient-7"/>
    <linearGradient id="linear-gradient-10" y1="64.26" y2="64.26" xlink:href="#linear-gradient-7"/>
    <linearGradient id="linear-gradient-11" y1="64.25" y2="64.25" xlink:href="#linear-gradient-7"/>
    <linearGradient id="linear-gradient-12" y1="64.26" x2="108.7" y2="64.26" xlink:href="#linear-gradient-7"/>
    <linearGradient id="linear-gradient-13" x1="50.46" y1="65" x2="54.19" y2="65" xlink:href="#linear-gradient-7"/>
  </defs>
  <g>
    <polygon class="cls-15" points="62.85 44.6 57.36 41.45 71.89 32.92 77.38 36.07 62.85 44.6"/>
    <polygon class="cls-6" points="43.82 44.6 49.31 41.45 34.78 32.92 29.29 36.07 43.82 44.6"/>
    <g>
      <polyline class="cls-5" points="71.96 13.26 71.96 11.34 53.16 .49 34.36 11.34 34.36 33.05 53.16 43.9 71.96 33.05 71.96 30.67"/>
      <line class="cls-3" x1="53.16" y1="22.01" x2="53.16" y2="43.9"/>
    </g>
    <g>
      <polygon class="cls-1" points="53.16 22.19 53.16 36.62 40.67 29.41 40.67 14.98 40.67 14.98 53.16 22.19"/>
      <polygon class="cls-4" points="65.65 14.98 65.65 36.69 53.16 43.9 53.16 22.19 65.62 14.96 65.65 14.98"/>
      <polygon class="cls-2" points="65.62 14.96 53.16 22.19 40.67 14.98 53.16 7.77 65.62 14.96"/>
    </g>
  </g>
  <g>
    <g>
      <text class="cls-9" transform="translate(0 72.42)"><tspan class="cls-12" x="0" y="0">V</tspan><tspan class="cls-8" x="17.87" y="0">SS B</tspan><tspan class="cls-7" x="75.15" y="0">O</tspan><tspan class="cls-8" x="95.24" y="0">X</tspan></text>
      <g>
        <path class="cls-13" d="m15.31,56.11l-7.43,16.56h-.22L.26,56.11h1.95l5.54,12.64,5.56-12.64h1.98Z"/>
        <path class="cls-16" d="m18.56,69.5l1.42-1.04c.74,1.4,2.41,2.33,4.14,2.33,2.13,0,3.88-1.15,3.88-2.76,0-1.83-2.34-2.71-4.42-3.5-2-.78-4.24-1.76-4.24-4.28s2.26-4.38,5.12-4.38c2.42,0,4.07,1.33,4.67,2.93l-1.39.93c-.53-1.22-1.84-2.05-3.31-2.05-1.75,0-3.25,1.15-3.25,2.61,0,1.58,1.79,2.16,3.9,2.96,2.45.99,4.76,2.12,4.76,4.75,0,2.81-2.6,4.64-5.74,4.64-2.68,0-4.77-1.4-5.54-3.14Z"/>
        <path class="cls-14" d="m34.33,69.5l1.42-1.04c.74,1.4,2.41,2.33,4.14,2.33,2.13,0,3.88-1.15,3.88-2.76,0-1.83-2.34-2.71-4.42-3.5-2-.78-4.24-1.76-4.24-4.28s2.26-4.38,5.12-4.38c2.42,0,4.07,1.33,4.67,2.93l-1.39.93c-.53-1.22-1.84-2.05-3.31-2.05-1.75,0-3.25,1.15-3.25,2.61,0,1.58,1.79,2.16,3.9,2.96,2.45.99,4.76,2.12,4.76,4.75,0,2.81-2.6,4.64-5.74,4.64-2.68,0-4.77-1.4-5.54-3.14Z"/>
        <path class="cls-11" d="m71.52,67.44c0,2.58-2.04,4.98-5.16,4.98h-6.04v-16.31h4.45c2.72,0,4.68,1.92,4.68,4.07,0,1.77-1.29,3.06-2.12,3.06,2.09,0,4.18,1.75,4.18,4.21Zm-9.37-9.54v4.94h2.71c1.77,0,2.86-1.07,2.86-2.45s-1.3-2.49-2.85-2.49h-2.72Zm7.57,9.42c0-1.53-1.45-2.85-3.6-2.84h-3.97v6.14h4.06c1.86,0,3.51-1.41,3.51-3.3Z"/>
        <path class="cls-10" d="m76.01,64.27c0-4.62,3.77-8.4,8.38-8.4s8.39,3.77,8.39,8.4-3.77,8.36-8.4,8.36-8.37-3.76-8.37-8.36Zm14.9-.01c0-3.59-2.93-6.54-6.54-6.54s-6.5,2.94-6.5,6.54,2.92,6.5,6.5,6.5,6.54-2.92,6.54-6.5Z"/>
        <path class="cls-17" d="m101.02,63.94l-5.12-7.83h2.13l4.07,6.23,4.05-6.23h2.14l-5.13,7.83,5.53,8.48h-2.09l-4.51-6.82-4.5,6.82h-2.09l5.52-8.48Z"/>
      </g>
    </g>
    <rect class="cls-18" x="50.46" y="63.14" width="3.73" height="3.73"/>
  </g>
</svg>