<?xml version="1.0" encoding="utf-8"?>
<!-- Generator: Adobe Illustrator 27.5.0, SVG Export Plug-In . SVG Version: 6.00 Build 0)  -->
<svg version="1.1" id="Layer_1" xmlns="http://www.w3.org/2000/svg" xmlns:xlink="http://www.w3.org/1999/xlink" x="0px" y="0px"
	 viewBox="0 0 112.1 72.6" style="enable-background:new 0 0 112.1 72.6;" xml:space="preserve">
<style type="text/css">
	.st0{fill:url(#SVGID_1_);}
	.st1{fill:url(#SVGID_00000016769983540941071790000003922357033808377006_);}
	
		.st2{fill:url(#SVGID_00000028317314776216565390000011704210825623248814_);stroke:#A9D8FF;stroke-width:0.85;stroke-miterlimit:10;}
	.st3{fill:none;stroke:#A9D8FF;stroke-width:0.85;stroke-miterlimit:10;}
	
		.st4{fill:url(#SVGID_00000067231492742216918010000005038049560920951484_);stroke:#A9D8FF;stroke-width:0.85;stroke-linecap:round;stroke-linejoin:round;}
	
		.st5{fill:url(#SVGID_00000101093505823050457370000009080068987205234317_);stroke:#A9D8FF;stroke-width:0.85;stroke-linecap:round;stroke-linejoin:round;}
	
		.st6{fill:url(#SVGID_00000012455512870329083720000017905217980612040124_);stroke:#A9D8FF;stroke-width:0.85;stroke-linecap:round;stroke-linejoin:round;}
	.st7{enable-background:new    ;}
	.st8{fill:#FFFFFF;}
	.st9{clip-path:url(#SVGID_00000178914856831057770950000015107733939120309640_);}
	.st10{fill:#FEFEFF;}
	.st11{fill:#FDFDFE;}
	.st12{fill:#FCFCFE;}
	.st13{fill:#FBFCFD;}
	.st14{fill:#FAFBFD;}
	.st15{fill:#F9FAFC;}
	.st16{fill:#F8F9FC;}
	.st17{fill:#F7F8FC;}
	.st18{fill:#F6F7FB;}
	.st19{fill:#F5F6FB;}
	.st20{fill:#F4F5FA;}
	.st21{fill:#F3F5FA;}
	.st22{clip-path:url(#SVGID_00000041265066100495253130000010221770828789752468_);}
	.st23{fill:#F1F3F9;}
	.st24{fill:#F0F2F8;}
	.st25{fill:#EFF1F8;}
	.st26{fill:#EDF0F8;}
	.st27{fill:#ECEFF7;}
	.st28{fill:#EBEEF7;}
	.st29{fill:#EAEEF6;}
	.st30{fill:#E9EDF6;}
	.st31{fill:#E8ECF5;}
	.st32{fill:#E7EBF5;}
	.st33{clip-path:url(#SVGID_00000088828150306604966470000002649029336702567861_);}
	.st34{fill:#E3E7F3;}
	.st35{fill:#E2E7F3;}
	.st36{fill:#E1E6F2;}
	.st37{fill:#E0E5F2;}
	.st38{fill:#DFE4F1;}
	.st39{fill:#DEE3F1;}
	.st40{fill:#DDE2F1;}
	.st41{fill:#DCE1F0;}
	.st42{clip-path:url(#SVGID_00000147926742710892015550000016801697463821386395_);}
	.st43{fill:#D2D8EC;}
	.st44{fill:#D0D7EB;}
	.st45{fill:#CFD6EB;}
	.st46{fill:#CED5EA;}
	.st47{fill:#CDD4EA;}
	.st48{fill:#CCD3E9;}
	.st49{fill:#D3D9EC;}
	.st50{fill:#CBD3E9;}
	.st51{clip-path:url(#SVGID_00000089576070252661570330000008468845801465916565_);}
	.st52{fill:#C7CFE7;}
	.st53{fill:#C6CEE6;}
	.st54{fill:#C5CDE6;}
	.st55{fill:#C4CCE6;}
	.st56{fill:#C3CBE5;}
	.st57{fill:#C2CAE5;}
	.st58{fill:#C9D1E8;}
	.st59{fill:#C8D0E7;}
	.st60{clip-path:url(#SVGID_00000000190743718925986080000017995051573777579177_);}
	.st61{fill:#C1C9E4;}
	.st62{fill:#BFC8E4;}
	.st63{fill:#BEC7E3;}
	.st64{fill:#BDC6E3;}
	.st65{fill:#BCC5E2;}
	.st66{clip-path:url(#SVGID_00000035529560712150975020000001351396295913160342_);}
	.st67{fill:#F2F4F9;}
	.st68{fill:#E6EAF5;}
	.st69{fill:#E5E9F4;}
	.st70{fill:#E4E8F4;}
	.st71{fill:#DBE0F0;}
	.st72{fill:#DADFEF;}
	.st73{fill:#D9DEEF;}
	.st74{fill:#D8DEEE;}
	.st75{fill:#D7DDEE;}
	.st76{fill:#D6DCED;}
	.st77{fill:#D5DBED;}
	.st78{fill:#D4DAEC;}
	.st79{fill:#CAD2E8;}
</style>
<g>
	
		<linearGradient id="SVGID_1_" gradientUnits="userSpaceOnUse" x1="61.6884" y1="1325.9973" x2="87.1684" y2="1310.5372" gradientTransform="matrix(1 0 0 1 0 -1283.79)">
		<stop  offset="0" style="stop-color:#000000;stop-opacity:0"/>
		<stop  offset="5.000000e-02" style="stop-color:#010609;stop-opacity:4.000000e-02"/>
		<stop  offset="0.15" style="stop-color:#041922;stop-opacity:0.16"/>
		<stop  offset="0.26" style="stop-color:#0A374C;stop-opacity:0.36"/>
		<stop  offset="0.4" style="stop-color:#126186;stop-opacity:0.62"/>
		<stop  offset="0.55" style="stop-color:#1C95CE;stop-opacity:0.96"/>
		<stop  offset="0.57" style="stop-color:#1E9CD7"/>
		<stop  offset="0.87" style="stop-color:#0075BE"/>
		<stop  offset="0.99" style="stop-color:#005B97"/>
	</linearGradient>
	<polygon class="st0" points="62.8,44.6 57.4,41.5 71.9,32.9 77.4,36.1 	"/>
	
		<linearGradient id="SVGID_00000181081421728649971680000004674696505981050771_" gradientUnits="userSpaceOnUse" x1="1755.7157" y1="1325.9929" x2="1781.1957" y2="1310.5328" gradientTransform="matrix(-1 0 0 1 1800.6899 -1283.79)">
		<stop  offset="0" style="stop-color:#000000;stop-opacity:0"/>
		<stop  offset="5.000000e-02" style="stop-color:#010609;stop-opacity:4.000000e-02"/>
		<stop  offset="0.15" style="stop-color:#041922;stop-opacity:0.16"/>
		<stop  offset="0.26" style="stop-color:#0A374C;stop-opacity:0.36"/>
		<stop  offset="0.4" style="stop-color:#126186;stop-opacity:0.62"/>
		<stop  offset="0.55" style="stop-color:#1C95CE;stop-opacity:0.96"/>
		<stop  offset="0.57" style="stop-color:#1E9CD7"/>
		<stop  offset="0.87" style="stop-color:#0075BE"/>
		<stop  offset="0.99" style="stop-color:#005B97"/>
	</linearGradient>
	<polygon style="fill:url(#SVGID_00000181081421728649971680000004674696505981050771_);" points="43.8,44.6 49.3,41.5 34.8,32.9 
		29.3,36.1 	"/>
	<g>
		
			<linearGradient id="SVGID_00000143607844491752416070000013181015378321780866_" gradientUnits="userSpaceOnUse" x1="66.96" y1="51.805" x2="39.18" y2="51.805" gradientTransform="matrix(1 0 0 -1 0 74)">
			<stop  offset="0" style="stop-color:#000000;stop-opacity:0"/>
			<stop  offset="5.000000e-02" style="stop-color:#010609;stop-opacity:4.000000e-02"/>
			<stop  offset="0.15" style="stop-color:#041922;stop-opacity:0.16"/>
			<stop  offset="0.26" style="stop-color:#0A374C;stop-opacity:0.36"/>
			<stop  offset="0.4" style="stop-color:#126186;stop-opacity:0.62"/>
			<stop  offset="0.55" style="stop-color:#1C95CE;stop-opacity:0.96"/>
			<stop  offset="0.57" style="stop-color:#1E9CD7"/>
			<stop  offset="0.87" style="stop-color:#0075BE"/>
			<stop  offset="0.99" style="stop-color:#005B97"/>
		</linearGradient>
		
			<polyline style="fill:url(#SVGID_00000143607844491752416070000013181015378321780866_);stroke:#A9D8FF;stroke-width:0.85;stroke-miterlimit:10;" points="
			72,13.3 72,11.3 53.2,0.5 34.4,11.3 34.4,33 53.2,43.9 72,33 72,30.7 		"/>
		<line class="st3" x1="53.2" y1="22" x2="53.2" y2="43.9"/>
	</g>
	<g>
		
			<linearGradient id="SVGID_00000075858861525030055560000014331859650482740902_" gradientUnits="userSpaceOnUse" x1="45.4104" y1="49.2406" x2="84.5804" y2="22.1506" gradientTransform="matrix(1 0 0 -1 0 74)">
			<stop  offset="0" style="stop-color:#000000"/>
			<stop  offset="5.000000e-02" style="stop-color:#010609"/>
			<stop  offset="0.15" style="stop-color:#041922"/>
			<stop  offset="0.26" style="stop-color:#0A374C"/>
			<stop  offset="0.4" style="stop-color:#126186"/>
			<stop  offset="0.55" style="stop-color:#1C95CE"/>
			<stop  offset="0.57" style="stop-color:#1E9CD7"/>
			<stop  offset="0.87" style="stop-color:#0075BE"/>
			<stop  offset="0.99" style="stop-color:#005B97"/>
		</linearGradient>
		
			<polygon style="fill:url(#SVGID_00000075858861525030055560000014331859650482740902_);stroke:#A9D8FF;stroke-width:0.85;stroke-linecap:round;stroke-linejoin:round;" points="
			53.2,22.2 53.2,36.6 40.7,29.4 40.7,15 40.7,15 		"/>
		
			<linearGradient id="SVGID_00000088112830340541341290000017094111697443179691_" gradientUnits="userSpaceOnUse" x1="47.7426" y1="52.6237" x2="86.9226" y2="25.5337" gradientTransform="matrix(1 0 0 -1 0 74)">
			<stop  offset="0" style="stop-color:#000000"/>
			<stop  offset="5.000000e-02" style="stop-color:#010609"/>
			<stop  offset="0.15" style="stop-color:#041922"/>
			<stop  offset="0.26" style="stop-color:#0A374C"/>
			<stop  offset="0.4" style="stop-color:#126186"/>
			<stop  offset="0.55" style="stop-color:#1C95CE"/>
			<stop  offset="0.57" style="stop-color:#1E9CD7"/>
			<stop  offset="0.87" style="stop-color:#0075BE"/>
			<stop  offset="0.99" style="stop-color:#005B97"/>
		</linearGradient>
		
			<polygon style="fill:url(#SVGID_00000088112830340541341290000017094111697443179691_);stroke:#A9D8FF;stroke-width:0.85;stroke-linecap:round;stroke-linejoin:round;" points="
			65.7,15 65.7,36.7 53.2,43.9 53.2,22.2 65.6,15 		"/>
		
			<linearGradient id="SVGID_00000055705854835692178980000006707905042727263407_" gradientUnits="userSpaceOnUse" x1="52.4914" y1="59.4819" x2="91.6713" y2="32.3919" gradientTransform="matrix(1 0 0 -1 0 74)">
			<stop  offset="0" style="stop-color:#000000"/>
			<stop  offset="5.000000e-02" style="stop-color:#010609"/>
			<stop  offset="0.15" style="stop-color:#041922"/>
			<stop  offset="0.26" style="stop-color:#0A374C"/>
			<stop  offset="0.4" style="stop-color:#126186"/>
			<stop  offset="0.55" style="stop-color:#1C95CE"/>
			<stop  offset="0.57" style="stop-color:#1E9CD7"/>
			<stop  offset="0.87" style="stop-color:#0075BE"/>
			<stop  offset="0.99" style="stop-color:#005B97"/>
		</linearGradient>
		
			<polygon style="fill:url(#SVGID_00000055705854835692178980000006707905042727263407_);stroke:#A9D8FF;stroke-width:0.85;stroke-linecap:round;stroke-linejoin:round;" points="
			65.6,15 53.2,22.2 40.7,15 53.2,7.8 		"/>
	</g>
</g>
<g class="st7">
	<path class="st8" d="M15.3,56.1L7.9,72.7H7.7L0.3,56.1h2l5.5,12.6l5.6-12.6H15.3z"/>
</g>
<g class="st7">
	<path class="st8" d="M18.6,69.5l1.4-1c0.7,1.4,2.4,2.3,4.1,2.3c2.1,0,3.9-1.2,3.9-2.8c0-1.8-2.3-2.7-4.4-3.5
		c-2-0.8-4.2-1.8-4.2-4.3c0-2.5,2.3-4.4,5.1-4.4c2.4,0,4.1,1.3,4.7,2.9l-1.4,0.9c-0.5-1.2-1.8-2.1-3.3-2.1c-1.8,0-3.2,1.2-3.2,2.6
		c0,1.6,1.8,2.2,3.9,3c2.4,1,4.8,2.1,4.8,4.7c0,2.8-2.6,4.6-5.7,4.6C21.4,72.6,19.3,71.2,18.6,69.5z"/>
	<path class="st8" d="M34.3,69.5l1.4-1c0.7,1.4,2.4,2.3,4.1,2.3c2.1,0,3.9-1.2,3.9-2.8c0-1.8-2.3-2.7-4.4-3.5
		c-2-0.8-4.2-1.8-4.2-4.3c0-2.5,2.3-4.4,5.1-4.4c2.4,0,4.1,1.3,4.7,2.9l-1.4,0.9c-0.5-1.2-1.8-2.1-3.3-2.1c-1.8,0-3.2,1.2-3.2,2.6
		c0,1.6,1.8,2.2,3.9,3c2.4,1,4.8,2.1,4.8,4.7c0,2.8-2.6,4.6-5.7,4.6C37.2,72.6,35.1,71.2,34.3,69.5z"/>
	<path class="st8" d="M71.5,67.4c0,2.6-2,5-5.2,5h-6V56.1h4.5c2.7,0,4.7,1.9,4.7,4.1c0,1.8-1.3,3.1-2.1,3.1
		C69.4,63.2,71.5,65,71.5,67.4z M62.1,57.9v4.9h2.7c1.8,0,2.9-1.1,2.9-2.4c0-1.4-1.3-2.5-2.9-2.5H62.1z M69.7,67.3
		c0-1.5-1.4-2.9-3.6-2.8h-4v6.1h4.1C68.1,70.6,69.7,69.2,69.7,67.3z"/>
</g>
<g class="st7">
	<path class="st8" d="M76,64.3c0-4.6,3.8-8.4,8.4-8.4c4.6,0,8.4,3.8,8.4,8.4c0,4.6-3.8,8.4-8.4,8.4C79.8,72.6,76,68.9,76,64.3z
		 M90.9,64.3c0-3.6-2.9-6.5-6.5-6.5c-3.6,0-6.5,2.9-6.5,6.5c0,3.6,2.9,6.5,6.5,6.5C88,70.8,90.9,67.8,90.9,64.3z"/>
</g>
<g class="st7">
	<path class="st8" d="M101,63.9l-5.1-7.8H98l4.1,6.2l4-6.2h2.1l-5.1,7.8l5.5,8.5h-2.1l-4.5-6.8l-4.5,6.8h-2.1L101,63.9z"/>
</g>
<g>
	<defs>
		<path id="SVGID_00000173161446584501162380000006458367402443485582_" d="M15.3,56.1L7.9,72.7H7.7L0.3,56.1h2l5.5,12.6l5.6-12.6
			H15.3L15.3,56.1z"/>
	</defs>
	<clipPath id="SVGID_00000153703720377689085740000017068652740906711725_">
		<use xlink:href="#SVGID_00000173161446584501162380000006458367402443485582_"  style="overflow:visible;"/>
	</clipPath>
	<g style="clip-path:url(#SVGID_00000153703720377689085740000017068652740906711725_);">
		<path class="st8" d="M0.3,56.1v16.6V56.1z"/>
	</g>
	<g style="clip-path:url(#SVGID_00000153703720377689085740000017068652740906711725_);">
		<rect x="0.3" y="56.1" class="st8" width="1.2" height="16.6"/>
	</g>
	<g style="clip-path:url(#SVGID_00000153703720377689085740000017068652740906711725_);">
		<rect x="1.5" y="56.1" class="st10" width="1.2" height="16.6"/>
	</g>
	<g style="clip-path:url(#SVGID_00000153703720377689085740000017068652740906711725_);">
		<rect x="2.8" y="56.1" class="st11" width="1.2" height="16.6"/>
	</g>
	<g style="clip-path:url(#SVGID_00000153703720377689085740000017068652740906711725_);">
		<rect x="4" y="56.1" class="st12" width="1.2" height="16.6"/>
	</g>
	<g style="clip-path:url(#SVGID_00000153703720377689085740000017068652740906711725_);">
		<rect x="5.3" y="56.1" class="st13" width="1.2" height="16.6"/>
	</g>
	<g style="clip-path:url(#SVGID_00000153703720377689085740000017068652740906711725_);">
		<rect x="6.5" y="56.1" class="st14" width="1.2" height="16.6"/>
	</g>
	<g style="clip-path:url(#SVGID_00000153703720377689085740000017068652740906711725_);">
		<rect x="7.8" y="56.1" class="st15" width="1.2" height="16.6"/>
	</g>
	<g style="clip-path:url(#SVGID_00000153703720377689085740000017068652740906711725_);">
		<rect x="9" y="56.1" class="st16" width="1.2" height="16.6"/>
	</g>
	<g style="clip-path:url(#SVGID_00000153703720377689085740000017068652740906711725_);">
		<rect x="10.2" y="56.1" class="st17" width="1.2" height="16.6"/>
	</g>
	<g style="clip-path:url(#SVGID_00000153703720377689085740000017068652740906711725_);">
		<rect x="11.5" y="56.1" class="st18" width="1.2" height="16.6"/>
	</g>
	<g style="clip-path:url(#SVGID_00000153703720377689085740000017068652740906711725_);">
		<rect x="12.7" y="56.1" class="st19" width="1.2" height="16.6"/>
	</g>
	<g style="clip-path:url(#SVGID_00000153703720377689085740000017068652740906711725_);">
		<rect x="14" y="56.1" class="st20" width="1.2" height="16.6"/>
	</g>
	<g style="clip-path:url(#SVGID_00000153703720377689085740000017068652740906711725_);">
		<rect x="15.2" y="56.1" class="st21" width="0.1" height="16.6"/>
	</g>
</g>
<g>
	<defs>
		<path id="SVGID_00000010996450995394917640000013579932727447722387_" d="M18.6,69.5l1.4-1c0.7,1.4,2.4,2.3,4.1,2.3
			c2.1,0,3.9-1.2,3.9-2.8c0-1.8-2.3-2.7-4.4-3.5c-2-0.8-4.2-1.8-4.2-4.3s2.3-4.4,5.1-4.4c2.4,0,4.1,1.3,4.7,2.9l-1.4,0.9
			c-0.5-1.2-1.8-2-3.3-2c-1.8,0-3.2,1.2-3.2,2.6c0,1.6,1.8,2.2,3.9,3c2.5,1,4.8,2.1,4.8,4.8c0,2.8-2.6,4.6-5.7,4.6
			C21.4,72.6,19.3,71.2,18.6,69.5z"/>
	</defs>
	<clipPath id="SVGID_00000103231398522203871250000005353785073583281800_">
		<use xlink:href="#SVGID_00000010996450995394917640000013579932727447722387_"  style="overflow:visible;"/>
	</clipPath>
	<g style="clip-path:url(#SVGID_00000103231398522203871250000005353785073583281800_);">
		<rect x="18.6" y="55.9" class="st23" width="0.4" height="16.8"/>
	</g>
	<g style="clip-path:url(#SVGID_00000103231398522203871250000005353785073583281800_);">
		<rect x="19" y="55.9" class="st24" width="1.2" height="16.8"/>
	</g>
	<g style="clip-path:url(#SVGID_00000103231398522203871250000005353785073583281800_);">
		<rect x="20.2" y="55.9" class="st25" width="1.2" height="16.8"/>
	</g>
	<g style="clip-path:url(#SVGID_00000103231398522203871250000005353785073583281800_);">
		<rect x="21.5" y="55.9" class="st26" width="1.2" height="16.8"/>
	</g>
	<g style="clip-path:url(#SVGID_00000103231398522203871250000005353785073583281800_);">
		<rect x="22.7" y="55.9" class="st27" width="1.2" height="16.8"/>
	</g>
	<g style="clip-path:url(#SVGID_00000103231398522203871250000005353785073583281800_);">
		<rect x="24" y="55.9" class="st28" width="1.2" height="16.8"/>
	</g>
	<g style="clip-path:url(#SVGID_00000103231398522203871250000005353785073583281800_);">
		<rect x="25.2" y="55.9" class="st29" width="1.2" height="16.8"/>
	</g>
	<g style="clip-path:url(#SVGID_00000103231398522203871250000005353785073583281800_);">
		<rect x="26.5" y="55.9" class="st30" width="1.2" height="16.8"/>
	</g>
	<g style="clip-path:url(#SVGID_00000103231398522203871250000005353785073583281800_);">
		<rect x="27.7" y="55.9" class="st31" width="1.2" height="16.8"/>
	</g>
	<g style="clip-path:url(#SVGID_00000103231398522203871250000005353785073583281800_);">
		<rect x="29" y="55.9" class="st32" width="0.9" height="16.8"/>
	</g>
</g>
<g>
	<defs>
		<path id="SVGID_00000183952799691001663530000007788860760777575297_" d="M34.3,69.5l1.4-1c0.7,1.4,2.4,2.3,4.1,2.3
			c2.1,0,3.9-1.2,3.9-2.8c0-1.8-2.3-2.7-4.4-3.5c-2-0.8-4.2-1.8-4.2-4.3s2.3-4.4,5.1-4.4c2.4,0,4.1,1.3,4.7,2.9l-1.4,0.9
			c-0.5-1.2-1.8-2-3.3-2c-1.8,0-3.2,1.2-3.2,2.6c0,1.6,1.8,2.2,3.9,3c2.5,1,4.8,2.1,4.8,4.8c0,2.8-2.6,4.6-5.7,4.6
			C37.2,72.6,35.1,71.2,34.3,69.5z"/>
	</defs>
	<clipPath id="SVGID_00000181797889235211177700000011897784996689185438_">
		<use xlink:href="#SVGID_00000183952799691001663530000007788860760777575297_"  style="overflow:visible;"/>
	</clipPath>
	<g style="clip-path:url(#SVGID_00000181797889235211177700000011897784996689185438_);">
		<rect x="34.3" y="55.9" class="st34" width="0.9" height="16.8"/>
	</g>
	<g style="clip-path:url(#SVGID_00000181797889235211177700000011897784996689185438_);">
		<rect x="35.2" y="55.9" class="st35" width="1.2" height="16.8"/>
	</g>
	<g style="clip-path:url(#SVGID_00000181797889235211177700000011897784996689185438_);">
		<rect x="36.5" y="55.9" class="st36" width="1.2" height="16.8"/>
	</g>
	<g style="clip-path:url(#SVGID_00000181797889235211177700000011897784996689185438_);">
		<rect x="37.7" y="55.9" class="st37" width="1.2" height="16.8"/>
	</g>
	<g style="clip-path:url(#SVGID_00000181797889235211177700000011897784996689185438_);">
		<rect x="39" y="55.9" class="st38" width="1.2" height="16.8"/>
	</g>
	<g style="clip-path:url(#SVGID_00000181797889235211177700000011897784996689185438_);">
		<rect x="40.2" y="55.9" class="st39" width="1.2" height="16.8"/>
	</g>
	<g style="clip-path:url(#SVGID_00000181797889235211177700000011897784996689185438_);">
		<rect x="41.5" y="55.9" class="st39" width="1.6" height="16.8"/>
	</g>
	<g style="clip-path:url(#SVGID_00000181797889235211177700000011897784996689185438_);">
		<rect x="43.1" y="55.9" class="st40" width="1.6" height="16.8"/>
	</g>
	<g style="clip-path:url(#SVGID_00000181797889235211177700000011897784996689185438_);">
		<rect x="44.8" y="55.9" class="st41" width="0.8" height="16.8"/>
	</g>
</g>
<g>
	<defs>
		<path id="SVGID_00000131348211283380678330000004395984750927921571_" d="M71.5,67.4c0,2.6-2,5-5.2,5h-6V56.1h4.4
			c2.7,0,4.7,1.9,4.7,4.1c0,1.8-1.3,3.1-2.1,3.1C69.4,63.2,71.5,65,71.5,67.4L71.5,67.4z M62.1,57.9v4.9h2.7c1.8,0,2.9-1.1,2.9-2.5
			s-1.3-2.5-2.8-2.5C64.9,57.9,62.2,57.9,62.1,57.9z M69.7,67.3c0-1.5-1.4-2.8-3.6-2.8h-4v6.1h4.1C68.1,70.6,69.7,69.2,69.7,67.3z"
			/>
	</defs>
	<clipPath id="SVGID_00000052811623001300474090000003544168893169417128_">
		<use xlink:href="#SVGID_00000131348211283380678330000004395984750927921571_"  style="overflow:visible;"/>
	</clipPath>
	<g style="clip-path:url(#SVGID_00000052811623001300474090000003544168893169417128_);">
		<rect x="62.2" y="64.5" class="st43" width="0.7" height="6.2"/>
	</g>
	<g style="clip-path:url(#SVGID_00000052811623001300474090000003544168893169417128_);">
		<rect x="62.9" y="64.5" class="st44" width="1.6" height="6.2"/>
	</g>
	<g style="clip-path:url(#SVGID_00000052811623001300474090000003544168893169417128_);">
		<rect x="64.5" y="64.5" class="st45" width="1.6" height="6.2"/>
	</g>
	<g style="clip-path:url(#SVGID_00000052811623001300474090000003544168893169417128_);">
		<rect x="66.2" y="64.5" class="st46" width="1.6" height="6.2"/>
	</g>
	<g style="clip-path:url(#SVGID_00000052811623001300474090000003544168893169417128_);">
		<rect x="67.8" y="64.5" class="st47" width="1.6" height="6.2"/>
	</g>
	<g style="clip-path:url(#SVGID_00000052811623001300474090000003544168893169417128_);">
		<rect x="69.5" y="64.5" class="st48" width="0.2" height="6.2"/>
	</g>
	<g style="clip-path:url(#SVGID_00000052811623001300474090000003544168893169417128_);">
		<rect x="62.1" y="57.9" class="st43" width="0.7" height="4.9"/>
	</g>
	<g style="clip-path:url(#SVGID_00000052811623001300474090000003544168893169417128_);">
		<rect x="62.9" y="57.9" class="st44" width="1.6" height="4.9"/>
	</g>
	<g style="clip-path:url(#SVGID_00000052811623001300474090000003544168893169417128_);">
		<rect x="64.5" y="57.9" class="st45" width="1.6" height="4.9"/>
	</g>
	<g style="clip-path:url(#SVGID_00000052811623001300474090000003544168893169417128_);">
		<rect x="66.2" y="57.9" class="st46" width="1.5" height="4.9"/>
	</g>
	<g style="clip-path:url(#SVGID_00000052811623001300474090000003544168893169417128_);">
		<rect x="60.3" y="56.1" class="st49" width="0.9" height="16.3"/>
	</g>
	<g style="clip-path:url(#SVGID_00000052811623001300474090000003544168893169417128_);">
		<rect x="61.2" y="56.1" class="st43" width="1.6" height="16.3"/>
	</g>
	<g style="clip-path:url(#SVGID_00000052811623001300474090000003544168893169417128_);">
		<rect x="62.9" y="56.1" class="st44" width="1.6" height="16.3"/>
	</g>
	<g style="clip-path:url(#SVGID_00000052811623001300474090000003544168893169417128_);">
		<rect x="64.5" y="56.1" class="st45" width="1.6" height="16.3"/>
	</g>
	<g style="clip-path:url(#SVGID_00000052811623001300474090000003544168893169417128_);">
		<rect x="66.2" y="56.1" class="st46" width="1.6" height="16.3"/>
	</g>
	<g style="clip-path:url(#SVGID_00000052811623001300474090000003544168893169417128_);">
		<rect x="67.8" y="56.1" class="st47" width="1.6" height="16.3"/>
	</g>
	<g style="clip-path:url(#SVGID_00000052811623001300474090000003544168893169417128_);">
		<rect x="69.5" y="56.1" class="st48" width="1.6" height="16.3"/>
	</g>
	<g style="clip-path:url(#SVGID_00000052811623001300474090000003544168893169417128_);">
		<rect x="71.1" y="56.1" class="st50" width="0.4" height="16.3"/>
	</g>
</g>
<g>
	<defs>
		<path id="SVGID_00000036957535164928365020000012508464842625456786_" d="M76,64.3c0-4.6,3.8-8.4,8.4-8.4s8.4,3.8,8.4,8.4
			s-3.8,8.4-8.4,8.4S76,68.9,76,64.3z M90.9,64.3c0-3.6-2.9-6.5-6.5-6.5s-6.5,2.9-6.5,6.5c0,3.6,2.9,6.5,6.5,6.5
			S90.9,67.8,90.9,64.3z"/>
	</defs>
	<clipPath id="SVGID_00000183967423414294950400000011255263705934939264_">
		<use xlink:href="#SVGID_00000036957535164928365020000012508464842625456786_"  style="overflow:visible;"/>
	</clipPath>
	<g style="clip-path:url(#SVGID_00000183967423414294950400000011255263705934939264_);">
		<rect x="77.9" y="57.7" class="st52" width="1.5" height="13"/>
	</g>
	<g style="clip-path:url(#SVGID_00000183967423414294950400000011255263705934939264_);">
		<rect x="79.4" y="57.7" class="st53" width="1.6" height="13"/>
	</g>
	<g style="clip-path:url(#SVGID_00000183967423414294950400000011255263705934939264_);">
		<rect x="81" y="57.7" class="st54" width="1.6" height="13"/>
	</g>
	<g style="clip-path:url(#SVGID_00000183967423414294950400000011255263705934939264_);">
		<rect x="82.7" y="57.7" class="st54" width="2.7" height="13"/>
	</g>
	<g style="clip-path:url(#SVGID_00000183967423414294950400000011255263705934939264_);">
		<rect x="85.3" y="57.7" class="st55" width="2.7" height="13"/>
	</g>
	<g style="clip-path:url(#SVGID_00000183967423414294950400000011255263705934939264_);">
		<rect x="88" y="57.7" class="st56" width="2.7" height="13"/>
	</g>
	<g style="clip-path:url(#SVGID_00000183967423414294950400000011255263705934939264_);">
		<rect x="90.6" y="57.7" class="st57" width="0.3" height="13"/>
	</g>
	<g style="clip-path:url(#SVGID_00000183967423414294950400000011255263705934939264_);">
		<rect x="76" y="55.9" class="st58" width="0.1" height="16.8"/>
	</g>
	<g style="clip-path:url(#SVGID_00000183967423414294950400000011255263705934939264_);">
		<rect x="76.1" y="55.9" class="st59" width="1.6" height="16.8"/>
	</g>
	<g style="clip-path:url(#SVGID_00000183967423414294950400000011255263705934939264_);">
		<rect x="77.7" y="55.9" class="st52" width="1.6" height="16.8"/>
	</g>
	<g style="clip-path:url(#SVGID_00000183967423414294950400000011255263705934939264_);">
		<rect x="79.4" y="55.9" class="st53" width="1.6" height="16.8"/>
	</g>
	<g style="clip-path:url(#SVGID_00000183967423414294950400000011255263705934939264_);">
		<rect x="81" y="55.9" class="st54" width="1.6" height="16.8"/>
	</g>
	<g style="clip-path:url(#SVGID_00000183967423414294950400000011255263705934939264_);">
		<rect x="82.7" y="55.9" class="st54" width="2.7" height="16.8"/>
	</g>
	<g style="clip-path:url(#SVGID_00000183967423414294950400000011255263705934939264_);">
		<rect x="85.3" y="55.9" class="st55" width="2.7" height="16.8"/>
	</g>
	<g style="clip-path:url(#SVGID_00000183967423414294950400000011255263705934939264_);">
		<rect x="88" y="55.9" class="st56" width="2.7" height="16.8"/>
	</g>
	<g style="clip-path:url(#SVGID_00000183967423414294950400000011255263705934939264_);">
		<rect x="90.6" y="55.9" class="st57" width="2.2" height="16.8"/>
	</g>
</g>
<g>
	<defs>
		<path id="SVGID_00000165921138748961089700000010214700613779004299_" d="M101,63.9l-5.1-7.8H98l4.1,6.2l4.1-6.2h2.1l-5.1,7.8
			l5.5,8.5h-2.1l-4.5-6.8l-4.5,6.8h-2.1L101,63.9z"/>
	</defs>
	<clipPath id="SVGID_00000173158402360128826120000009752219126663833490_">
		<use xlink:href="#SVGID_00000165921138748961089700000010214700613779004299_"  style="overflow:visible;"/>
	</clipPath>
	<g style="clip-path:url(#SVGID_00000173158402360128826120000009752219126663833490_);">
		<rect x="95.5" y="56.1" class="st61" width="0.4" height="16.3"/>
	</g>
	<g style="clip-path:url(#SVGID_00000173158402360128826120000009752219126663833490_);">
		<rect x="95.9" y="56.1" class="st62" width="2.7" height="16.3"/>
	</g>
	<g style="clip-path:url(#SVGID_00000173158402360128826120000009752219126663833490_);">
		<rect x="98.6" y="56.1" class="st63" width="2.7" height="16.3"/>
	</g>
	<g style="clip-path:url(#SVGID_00000173158402360128826120000009752219126663833490_);">
		<rect x="101.2" y="56.1" class="st64" width="2.7" height="16.3"/>
	</g>
	<g style="clip-path:url(#SVGID_00000173158402360128826120000009752219126663833490_);">
		<rect x="103.9" y="56.1" class="st65" width="2.7" height="16.3"/>
	</g>
	<g style="clip-path:url(#SVGID_00000173158402360128826120000009752219126663833490_);">
		<rect x="106.5" y="56.1" class="st65" width="2.2" height="16.3"/>
	</g>
</g>
<g>
	<defs>
		<rect id="SVGID_00000049913684652159857640000013754786810209259704_" x="50.5" y="63.1" width="3.7" height="3.7"/>
	</defs>
	<clipPath id="SVGID_00000120542661101555803420000015091434412506963131_">
		<use xlink:href="#SVGID_00000049913684652159857640000013754786810209259704_"  style="overflow:visible;"/>
	</clipPath>
	<g style="clip-path:url(#SVGID_00000120542661101555803420000015091434412506963131_);">
		<path class="st8" d="M50.5,63.1v3.7V63.1z"/>
	</g>
	<g style="clip-path:url(#SVGID_00000120542661101555803420000015091434412506963131_);">
		<rect x="50.5" y="63.1" class="st8" width="0" height="3.7"/>
	</g>
	<g style="clip-path:url(#SVGID_00000120542661101555803420000015091434412506963131_);">
		<rect x="50.5" y="63.1" class="st10" width="0" height="3.7"/>
	</g>
	<g style="clip-path:url(#SVGID_00000120542661101555803420000015091434412506963131_);">
		<rect x="50.5" y="63.1" class="st11" width="0" height="3.7"/>
	</g>
	<g style="clip-path:url(#SVGID_00000120542661101555803420000015091434412506963131_);">
		<rect x="50.6" y="63.1" class="st12" width="0" height="3.7"/>
	</g>
	<g style="clip-path:url(#SVGID_00000120542661101555803420000015091434412506963131_);">
		<rect x="50.6" y="63.1" class="st13" width="0" height="3.7"/>
	</g>
	<g style="clip-path:url(#SVGID_00000120542661101555803420000015091434412506963131_);">
		<rect x="50.7" y="63.1" class="st14" width="0" height="3.7"/>
	</g>
	<g style="clip-path:url(#SVGID_00000120542661101555803420000015091434412506963131_);">
		<rect x="50.7" y="63.1" class="st15" width="0" height="3.7"/>
	</g>
	<g style="clip-path:url(#SVGID_00000120542661101555803420000015091434412506963131_);">
		<rect x="50.8" y="63.1" class="st16" width="0" height="3.7"/>
	</g>
	<g style="clip-path:url(#SVGID_00000120542661101555803420000015091434412506963131_);">
		<rect x="50.8" y="63.1" class="st17" width="0" height="3.7"/>
	</g>
	<g style="clip-path:url(#SVGID_00000120542661101555803420000015091434412506963131_);">
		<rect x="50.8" y="63.1" class="st18" width="0" height="3.7"/>
	</g>
	<g style="clip-path:url(#SVGID_00000120542661101555803420000015091434412506963131_);">
		<rect x="50.9" y="63.1" class="st19" width="0" height="3.7"/>
	</g>
	<g style="clip-path:url(#SVGID_00000120542661101555803420000015091434412506963131_);">
		<rect x="50.9" y="63.1" class="st20" width="0" height="3.7"/>
	</g>
	<g style="clip-path:url(#SVGID_00000120542661101555803420000015091434412506963131_);">
		<rect x="51" y="63.1" class="st21" width="0" height="3.7"/>
	</g>
	<g style="clip-path:url(#SVGID_00000120542661101555803420000015091434412506963131_);">
		<rect x="51" y="63.1" class="st67" width="0" height="3.7"/>
	</g>
	<g style="clip-path:url(#SVGID_00000120542661101555803420000015091434412506963131_);">
		<rect x="51.1" y="63.1" class="st23" width="0" height="3.7"/>
	</g>
	<g style="clip-path:url(#SVGID_00000120542661101555803420000015091434412506963131_);">
		<rect x="51.1" y="63.1" class="st24" width="0" height="3.7"/>
	</g>
	<g style="clip-path:url(#SVGID_00000120542661101555803420000015091434412506963131_);">
		<rect x="51.1" y="63.1" class="st25" width="0" height="3.7"/>
	</g>
	<g style="clip-path:url(#SVGID_00000120542661101555803420000015091434412506963131_);">
		<rect x="51.2" y="63.1" class="st26" width="0" height="3.7"/>
	</g>
	<g style="clip-path:url(#SVGID_00000120542661101555803420000015091434412506963131_);">
		<rect x="51.2" y="63.1" class="st27" width="0" height="3.7"/>
	</g>
	<g style="clip-path:url(#SVGID_00000120542661101555803420000015091434412506963131_);">
		<rect x="51.3" y="63.1" class="st28" width="0" height="3.7"/>
	</g>
	<g style="clip-path:url(#SVGID_00000120542661101555803420000015091434412506963131_);">
		<rect x="51.3" y="63.1" class="st29" width="0" height="3.7"/>
	</g>
	<g style="clip-path:url(#SVGID_00000120542661101555803420000015091434412506963131_);">
		<rect x="51.4" y="63.1" class="st30" width="0" height="3.7"/>
	</g>
	<g style="clip-path:url(#SVGID_00000120542661101555803420000015091434412506963131_);">
		<rect x="51.4" y="63.1" class="st31" width="0" height="3.7"/>
	</g>
	<g style="clip-path:url(#SVGID_00000120542661101555803420000015091434412506963131_);">
		<rect x="51.4" y="63.1" class="st32" width="0" height="3.7"/>
	</g>
	<g style="clip-path:url(#SVGID_00000120542661101555803420000015091434412506963131_);">
		<rect x="51.5" y="63.1" class="st68" width="0" height="3.7"/>
	</g>
	<g style="clip-path:url(#SVGID_00000120542661101555803420000015091434412506963131_);">
		<rect x="51.5" y="63.1" class="st69" width="0" height="3.7"/>
	</g>
	<g style="clip-path:url(#SVGID_00000120542661101555803420000015091434412506963131_);">
		<rect x="51.6" y="63.1" class="st70" width="0" height="3.7"/>
	</g>
	<g style="clip-path:url(#SVGID_00000120542661101555803420000015091434412506963131_);">
		<rect x="51.6" y="63.1" class="st34" width="0" height="3.7"/>
	</g>
	<g style="clip-path:url(#SVGID_00000120542661101555803420000015091434412506963131_);">
		<rect x="51.7" y="63.1" class="st35" width="0" height="3.7"/>
	</g>
	<g style="clip-path:url(#SVGID_00000120542661101555803420000015091434412506963131_);">
		<rect x="51.7" y="63.1" class="st36" width="0" height="3.7"/>
	</g>
	<g style="clip-path:url(#SVGID_00000120542661101555803420000015091434412506963131_);">
		<rect x="51.7" y="63.1" class="st37" width="0" height="3.7"/>
	</g>
	<g style="clip-path:url(#SVGID_00000120542661101555803420000015091434412506963131_);">
		<rect x="51.8" y="63.1" class="st38" width="0" height="3.7"/>
	</g>
	<g style="clip-path:url(#SVGID_00000120542661101555803420000015091434412506963131_);">
		<rect x="51.8" y="63.1" class="st39" width="0" height="3.7"/>
	</g>
	<g style="clip-path:url(#SVGID_00000120542661101555803420000015091434412506963131_);">
		<rect x="51.9" y="63.1" class="st39" width="0.1" height="3.7"/>
	</g>
	<g style="clip-path:url(#SVGID_00000120542661101555803420000015091434412506963131_);">
		<rect x="51.9" y="63.1" class="st40" width="0.1" height="3.7"/>
	</g>
	<g style="clip-path:url(#SVGID_00000120542661101555803420000015091434412506963131_);">
		<rect x="52" y="63.1" class="st41" width="0.1" height="3.7"/>
	</g>
	<g style="clip-path:url(#SVGID_00000120542661101555803420000015091434412506963131_);">
		<rect x="52" y="63.1" class="st71" width="0.1" height="3.7"/>
	</g>
	<g style="clip-path:url(#SVGID_00000120542661101555803420000015091434412506963131_);">
		<rect x="52.1" y="63.1" class="st72" width="0.1" height="3.7"/>
	</g>
	<g style="clip-path:url(#SVGID_00000120542661101555803420000015091434412506963131_);">
		<rect x="52.2" y="63.1" class="st73" width="0.1" height="3.7"/>
	</g>
	<g style="clip-path:url(#SVGID_00000120542661101555803420000015091434412506963131_);">
		<rect x="52.2" y="63.1" class="st74" width="0.1" height="3.7"/>
	</g>
	<g style="clip-path:url(#SVGID_00000120542661101555803420000015091434412506963131_);">
		<rect x="52.3" y="63.1" class="st75" width="0.1" height="3.7"/>
	</g>
	<g style="clip-path:url(#SVGID_00000120542661101555803420000015091434412506963131_);">
		<rect x="52.3" y="63.1" class="st76" width="0.1" height="3.7"/>
	</g>
	<g style="clip-path:url(#SVGID_00000120542661101555803420000015091434412506963131_);">
		<rect x="52.4" y="63.1" class="st77" width="0.1" height="3.7"/>
	</g>
	<g style="clip-path:url(#SVGID_00000120542661101555803420000015091434412506963131_);">
		<rect x="52.4" y="63.1" class="st78" width="0.1" height="3.7"/>
	</g>
	<g style="clip-path:url(#SVGID_00000120542661101555803420000015091434412506963131_);">
		<rect x="52.5" y="63.1" class="st49" width="0.1" height="3.7"/>
	</g>
	<g style="clip-path:url(#SVGID_00000120542661101555803420000015091434412506963131_);">
		<rect x="52.6" y="63.1" class="st43" width="0.1" height="3.7"/>
	</g>
	<g style="clip-path:url(#SVGID_00000120542661101555803420000015091434412506963131_);">
		<rect x="52.6" y="63.1" class="st44" width="0.1" height="3.7"/>
	</g>
	<g style="clip-path:url(#SVGID_00000120542661101555803420000015091434412506963131_);">
		<rect x="52.7" y="63.1" class="st45" width="0.1" height="3.7"/>
	</g>
	<g style="clip-path:url(#SVGID_00000120542661101555803420000015091434412506963131_);">
		<rect x="52.7" y="63.1" class="st46" width="0.1" height="3.7"/>
	</g>
	<g style="clip-path:url(#SVGID_00000120542661101555803420000015091434412506963131_);">
		<rect x="52.8" y="63.1" class="st47" width="0.1" height="3.7"/>
	</g>
	<g style="clip-path:url(#SVGID_00000120542661101555803420000015091434412506963131_);">
		<rect x="52.8" y="63.1" class="st48" width="0.1" height="3.7"/>
	</g>
	<g style="clip-path:url(#SVGID_00000120542661101555803420000015091434412506963131_);">
		<rect x="52.9" y="63.1" class="st50" width="0.1" height="3.7"/>
	</g>
	<g style="clip-path:url(#SVGID_00000120542661101555803420000015091434412506963131_);">
		<rect x="53" y="63.1" class="st79" width="0.1" height="3.7"/>
	</g>
	<g style="clip-path:url(#SVGID_00000120542661101555803420000015091434412506963131_);">
		<rect x="53" y="63.1" class="st58" width="0.1" height="3.7"/>
	</g>
	<g style="clip-path:url(#SVGID_00000120542661101555803420000015091434412506963131_);">
		<rect x="53.1" y="63.1" class="st59" width="0.1" height="3.7"/>
	</g>
	<g style="clip-path:url(#SVGID_00000120542661101555803420000015091434412506963131_);">
		<rect x="53.1" y="63.1" class="st52" width="0.1" height="3.7"/>
	</g>
	<g style="clip-path:url(#SVGID_00000120542661101555803420000015091434412506963131_);">
		<rect x="53.2" y="63.1" class="st53" width="0.1" height="3.7"/>
	</g>
	<g style="clip-path:url(#SVGID_00000120542661101555803420000015091434412506963131_);">
		<rect x="53.2" y="63.1" class="st54" width="0.1" height="3.7"/>
	</g>
	<g style="clip-path:url(#SVGID_00000120542661101555803420000015091434412506963131_);">
		<rect x="53.3" y="63.1" class="st54" width="0.1" height="3.7"/>
	</g>
	<g style="clip-path:url(#SVGID_00000120542661101555803420000015091434412506963131_);">
		<rect x="53.4" y="63.1" class="st55" width="0.1" height="3.7"/>
	</g>
	<g style="clip-path:url(#SVGID_00000120542661101555803420000015091434412506963131_);">
		<rect x="53.5" y="63.1" class="st56" width="0.1" height="3.7"/>
	</g>
	<g style="clip-path:url(#SVGID_00000120542661101555803420000015091434412506963131_);">
		<rect x="53.6" y="63.1" class="st57" width="0.1" height="3.7"/>
	</g>
	<g style="clip-path:url(#SVGID_00000120542661101555803420000015091434412506963131_);">
		<rect x="53.7" y="63.1" class="st61" width="0.1" height="3.7"/>
	</g>
	<g style="clip-path:url(#SVGID_00000120542661101555803420000015091434412506963131_);">
		<rect x="53.8" y="63.1" class="st62" width="0.1" height="3.7"/>
	</g>
	<g style="clip-path:url(#SVGID_00000120542661101555803420000015091434412506963131_);">
		<rect x="53.8" y="63.1" class="st63" width="0.1" height="3.7"/>
	</g>
	<g style="clip-path:url(#SVGID_00000120542661101555803420000015091434412506963131_);">
		<rect x="53.9" y="63.1" class="st64" width="0.1" height="3.7"/>
	</g>
	<g style="clip-path:url(#SVGID_00000120542661101555803420000015091434412506963131_);">
		<rect x="54" y="63.1" class="st65" width="0.1" height="3.7"/>
	</g>
	<g style="clip-path:url(#SVGID_00000120542661101555803420000015091434412506963131_);">
		<rect x="54.1" y="63.1" class="st65" width="0.1" height="3.7"/>
	</g>
</g>
</svg>
