<?xml version="1.0" encoding="utf-8"?>
<!-- Generator: Adobe Illustrator 27.5.0, SVG Export Plug-In . SVG Version: 6.00 Build 0)  -->
<svg version="1.1" id="Layer_1" xmlns="http://www.w3.org/2000/svg" xmlns:xlink="http://www.w3.org/1999/xlink" x="0px" y="0px"
	 viewBox="0 0 185.4 52.9" style="enable-background:new 0 0 185.4 52.9;" xml:space="preserve">
<style type="text/css">
	.st0{fill:url(#SVGID_1_);}
	.st1{fill:url(#SVGID_00000065790947674859923600000007809711995898062997_);}
	.st2{fill:url(#SVGID_00000010273332900961331680000015250082689714891904_);stroke:#A9D8FF;stroke-miterlimit:10;}
	.st3{fill:none;stroke:#A9D8FF;stroke-miterlimit:10;}
	
		.st4{fill:url(#SVGID_00000141450151919708989620000002037854740914738360_);stroke:#A9D8FF;stroke-linecap:round;stroke-linejoin:round;}
	
		.st5{fill:url(#SVGID_00000054260785138920917280000010595243325438686893_);stroke:#A9D8FF;stroke-linecap:round;stroke-linejoin:round;}
	
		.st6{fill:url(#SVGID_00000021838957372867284660000002972495390113122224_);stroke:#A9D8FF;stroke-linecap:round;stroke-linejoin:round;}
	.st7{fill:#FFFFFF;}
	.st8{clip-path:url(#SVGID_00000004539249933446492390000005931554413863735214_);}
	.st9{fill:#FEFEFE;}
	.st10{fill:#FCFDFE;}
	.st11{fill:#FBFCFD;}
	.st12{fill:#FAFAFD;}
	.st13{fill:#F8F9FC;}
	.st14{fill:#F7F8FC;}
	.st15{fill:#F6F7FB;}
	.st16{fill:#F4F6FA;}
	.st17{fill:#F3F5FA;}
	.st18{clip-path:url(#SVGID_00000124144228133784455140000006879524511930712235_);}
	.st19{fill:#F1F2F9;}
	.st20{fill:#EFF1F8;}
	.st21{fill:#EEF0F8;}
	.st22{fill:#EDEFF7;}
	.st23{fill:#EBEEF7;}
	.st24{fill:#EAEDF6;}
	.st25{fill:#E9ECF5;}
	.st26{fill:#E8EBF5;}
	.st27{clip-path:url(#SVGID_00000114773080609490984610000006896545378449096101_);}
	.st28{fill:#E4E8F3;}
	.st29{fill:#E3E7F3;}
	.st30{fill:#E2E6F2;}
	.st31{fill:#E1E5F2;}
	.st32{fill:#DFE4F1;}
	.st33{fill:#DEE3F1;}
	.st34{fill:#DDE2F0;}
	.st35{fill:#DCE1F0;}
	.st36{clip-path:url(#SVGID_00000023268431797255667910000003454520798479812779_);}
	.st37{fill:#D1D7EB;}
	.st38{fill:#D0D7EB;}
	.st39{fill:#CFD6EA;}
	.st40{fill:#CED5EA;}
	.st41{fill:#CDD4E9;}
	.st42{fill:#CCD3E9;}
	.st43{fill:#D2D8EC;}
	.st44{fill:#CBD2E9;}
	.st45{clip-path:url(#SVGID_00000076570361820362269560000011780139819324126115_);}
	.st46{fill:#C8CFE7;}
	.st47{fill:#C7CEE7;}
	.st48{fill:#C6CEE6;}
	.st49{fill:#C5CDE6;}
	.st50{fill:#C4CCE6;}
	.st51{fill:#C4CCE5;}
	.st52{fill:#C3CBE5;}
	.st53{fill:#C2CAE5;}
	.st54{fill:#C1CAE4;}
	.st55{fill:#C1C9E4;}
	.st56{fill:#C9D0E7;}
	.st57{fill:#C0C8E4;}
	.st58{clip-path:url(#SVGID_00000002365072037931224810000006174863312618836893_);}
	.st59{fill:#BFC8E3;}
	.st60{fill:#BFC7E3;}
	.st61{fill:#BEC7E3;}
	.st62{fill:#BEC6E3;}
	.st63{fill:#BDC6E2;}
	.st64{fill:#BCC5E2;}
	.st65{clip-path:url(#SVGID_00000175302087689184070860000010569441997485815694_);}
	.st66{fill:#F2F4F9;}
	.st67{fill:#E7EAF4;}
	.st68{fill:#E5E9F4;}
	.st69{fill:#DBE0EF;}
	.st70{fill:#DADFEF;}
	.st71{fill:#D9DEEE;}
	.st72{fill:#D8DDEE;}
	.st73{fill:#D7DCED;}
	.st74{fill:#D5DBED;}
	.st75{fill:#D4DAED;}
	.st76{fill:#D3D9EC;}
	.st77{fill:#CAD2E8;}
	.st78{fill:#CAD1E8;}
</style>
<g id="Layer_4">
	<g>
		<g>
			
				<linearGradient id="SVGID_1_" gradientUnits="userSpaceOnUse" x1="38.4253" y1="-6563.0176" x2="68.6453" y2="-6581.3579" gradientTransform="matrix(1 0 0 1 0 6613.0698)">
				<stop  offset="0" style="stop-color:#000000;stop-opacity:0"/>
				<stop  offset="5.000000e-02" style="stop-color:#010609;stop-opacity:4.000000e-02"/>
				<stop  offset="0.15" style="stop-color:#041922;stop-opacity:0.16"/>
				<stop  offset="0.26" style="stop-color:#0A374C;stop-opacity:0.36"/>
				<stop  offset="0.4" style="stop-color:#126186;stop-opacity:0.62"/>
				<stop  offset="0.55" style="stop-color:#1C95CE;stop-opacity:0.96"/>
				<stop  offset="0.57" style="stop-color:#1E9CD7"/>
				<stop  offset="0.87" style="stop-color:#0075BE"/>
				<stop  offset="0.99" style="stop-color:#005B97"/>
			</linearGradient>
			<polygon class="st0" points="39.8,52.9 33.3,49.2 50.5,39 57,42.8 			"/>
			
				<linearGradient id="SVGID_00000044879831858268441380000006510751969780442785_" gradientUnits="userSpaceOnUse" x1="10946.0879" y1="-6563.0132" x2="10976.3076" y2="-6581.3535" gradientTransform="matrix(-1 0 0 1 10964.7002 6613.0698)">
				<stop  offset="0" style="stop-color:#000000;stop-opacity:0"/>
				<stop  offset="5.000000e-02" style="stop-color:#010609;stop-opacity:4.000000e-02"/>
				<stop  offset="0.15" style="stop-color:#041922;stop-opacity:0.16"/>
				<stop  offset="0.26" style="stop-color:#0A374C;stop-opacity:0.36"/>
				<stop  offset="0.4" style="stop-color:#126186;stop-opacity:0.62"/>
				<stop  offset="0.55" style="stop-color:#1C95CE;stop-opacity:0.96"/>
				<stop  offset="0.57" style="stop-color:#1E9CD7"/>
				<stop  offset="0.87" style="stop-color:#0075BE"/>
				<stop  offset="0.99" style="stop-color:#005B97"/>
			</linearGradient>
			<polygon style="fill:url(#SVGID_00000044879831858268441380000006510751969780442785_);" points="17.2,52.9 23.7,49.2 6.5,39 
				0,42.8 			"/>
			<g>
				
					<linearGradient id="SVGID_00000101790488409624569770000010434736343597501093_" gradientUnits="userSpaceOnUse" x1="44.68" y1="25.68" x2="11.72" y2="25.68" gradientTransform="matrix(1 0 0 -1 0 52)">
					<stop  offset="0" style="stop-color:#000000;stop-opacity:0"/>
					<stop  offset="5.000000e-02" style="stop-color:#010609;stop-opacity:4.000000e-02"/>
					<stop  offset="0.15" style="stop-color:#041922;stop-opacity:0.16"/>
					<stop  offset="0.26" style="stop-color:#0A374C;stop-opacity:0.36"/>
					<stop  offset="0.4" style="stop-color:#126186;stop-opacity:0.62"/>
					<stop  offset="0.55" style="stop-color:#1C95CE;stop-opacity:0.96"/>
					<stop  offset="0.57" style="stop-color:#1E9CD7"/>
					<stop  offset="0.87" style="stop-color:#0075BE"/>
					<stop  offset="0.99" style="stop-color:#005B97"/>
				</linearGradient>
				
					<polyline style="fill:url(#SVGID_00000101790488409624569770000010434736343597501093_);stroke:#A9D8FF;stroke-miterlimit:10;" points="
					50.6,15.7 50.6,13.4 28.3,0.6 6,13.4 6,39.2 28.3,52.1 50.6,39.2 50.6,36.4 				"/>
				<line class="st3" x1="28.3" y1="26.1" x2="28.3" y2="52.1"/>
			</g>
			<g>
				
					<linearGradient id="SVGID_00000029761723089046299120000012847208462435421610_" gradientUnits="userSpaceOnUse" x1="19.1112" y1="22.6418" x2="65.5812" y2="-9.4882" gradientTransform="matrix(1 0 0 -1 0 52)">
					<stop  offset="0" style="stop-color:#000000"/>
					<stop  offset="5.000000e-02" style="stop-color:#010609"/>
					<stop  offset="0.15" style="stop-color:#041922"/>
					<stop  offset="0.26" style="stop-color:#0A374C"/>
					<stop  offset="0.4" style="stop-color:#126186"/>
					<stop  offset="0.55" style="stop-color:#1C95CE"/>
					<stop  offset="0.57" style="stop-color:#1E9CD7"/>
					<stop  offset="0.87" style="stop-color:#0075BE"/>
					<stop  offset="0.99" style="stop-color:#005B97"/>
				</linearGradient>
				
					<polygon style="fill:url(#SVGID_00000029761723089046299120000012847208462435421610_);stroke:#A9D8FF;stroke-linecap:round;stroke-linejoin:round;" points="
					28.3,26.3 28.3,43.4 13.5,34.9 13.5,17.8 13.5,17.8 				"/>
				
					<linearGradient id="SVGID_00000145048710634535410720000008085112278639859100_" gradientUnits="userSpaceOnUse" x1="21.8803" y1="26.6505" x2="68.3503" y2="-5.4795" gradientTransform="matrix(1 0 0 -1 0 52)">
					<stop  offset="0" style="stop-color:#000000"/>
					<stop  offset="5.000000e-02" style="stop-color:#010609"/>
					<stop  offset="0.15" style="stop-color:#041922"/>
					<stop  offset="0.26" style="stop-color:#0A374C"/>
					<stop  offset="0.4" style="stop-color:#126186"/>
					<stop  offset="0.55" style="stop-color:#1C95CE"/>
					<stop  offset="0.57" style="stop-color:#1E9CD7"/>
					<stop  offset="0.87" style="stop-color:#0075BE"/>
					<stop  offset="0.99" style="stop-color:#005B97"/>
				</linearGradient>
				
					<polygon style="fill:url(#SVGID_00000145048710634535410720000008085112278639859100_);stroke:#A9D8FF;stroke-linecap:round;stroke-linejoin:round;" points="
					43.1,17.8 43.1,43.5 28.3,52.1 28.3,26.3 43.1,17.8 				"/>
				
					<linearGradient id="SVGID_00000035494931458792209320000013833126977827525282_" gradientUnits="userSpaceOnUse" x1="27.512" y1="34.7829" x2="73.972" y2="2.6629" gradientTransform="matrix(1 0 0 -1 0 52)">
					<stop  offset="0" style="stop-color:#000000"/>
					<stop  offset="5.000000e-02" style="stop-color:#010609"/>
					<stop  offset="0.15" style="stop-color:#041922"/>
					<stop  offset="0.26" style="stop-color:#0A374C"/>
					<stop  offset="0.4" style="stop-color:#126186"/>
					<stop  offset="0.55" style="stop-color:#1C95CE"/>
					<stop  offset="0.57" style="stop-color:#1E9CD7"/>
					<stop  offset="0.87" style="stop-color:#0075BE"/>
					<stop  offset="0.99" style="stop-color:#005B97"/>
				</linearGradient>
				
					<polygon style="fill:url(#SVGID_00000035494931458792209320000013833126977827525282_);stroke:#A9D8FF;stroke-linecap:round;stroke-linejoin:round;" points="
					43.1,17.8 28.3,26.3 13.5,17.8 28.3,9.2 				"/>
			</g>
		</g>
		<g>
			<g>
				<g>
					<path class="st7" d="M74.7,17.6l-8.8,19.7h-0.3l-8.8-19.7h2.3l6.6,15l6.6-15H74.7z"/>
					<path class="st7" d="M78.5,33.5l1.7-1.2c0.9,1.7,2.9,2.8,4.9,2.8c2.5,0,4.6-1.4,4.6-3.3c0-2.2-2.8-3.2-5.2-4.1
						c-2.4-0.9-5-2.1-5-5.1s2.7-5.2,6.1-5.2c2.9,0,4.8,1.6,5.6,3.5l-1.7,1.1c-0.6-1.5-2.2-2.4-3.9-2.4c-2.1,0-3.8,1.4-3.8,3.1
						c0,1.9,2.1,2.6,4.6,3.5c2.9,1.2,5.7,2.5,5.7,5.6c0,3.3-3.1,5.5-6.8,5.5C81.9,37.2,79.4,35.6,78.5,33.5L78.5,33.5z"/>
					<path class="st7" d="M97.2,33.5l1.7-1.2c0.9,1.7,2.9,2.8,4.9,2.8c2.5,0,4.6-1.4,4.6-3.3c0-2.2-2.8-3.2-5.2-4.1
						c-2.4-0.9-5-2.1-5-5.1s2.7-5.2,6.1-5.2c2.9,0,4.8,1.6,5.6,3.5l-1.7,1.1c-0.6-1.5-2.2-2.4-3.9-2.4c-2.1,0-3.8,1.4-3.8,3.1
						c0,1.9,2.1,2.6,4.6,3.5c2.9,1.2,5.7,2.5,5.7,5.6c0,3.3-3.1,5.5-6.8,5.5C100.6,37.2,98.2,35.6,97.2,33.5L97.2,33.5z"/>
					<path class="st7" d="M141.3,31.1c0,3.1-2.4,5.9-6.1,5.9h-7.2V17.6h5.3c3.2,0,5.6,2.3,5.6,4.8c0,2.1-1.5,3.6-2.5,3.6
						C138.9,26.1,141.3,28.1,141.3,31.1L141.3,31.1z M130.2,19.7v5.9h3.2c2.1,0,3.4-1.3,3.4-2.9s-1.6-3-3.4-3H130.2z M139.2,30.9
						c0-1.8-1.7-3.4-4.3-3.4h-4.7v7.3h4.8C137.2,34.8,139.2,33.2,139.2,30.9L139.2,30.9z"/>
					<path class="st7" d="M146.7,27.3c0-5.5,4.5-10,9.9-10s10,4.5,10,10s-4.5,9.9-10,9.9S146.7,32.8,146.7,27.3z M164.4,27.3
						c0-4.3-3.5-7.8-7.8-7.8s-7.7,3.5-7.7,7.8s3.5,7.7,7.7,7.7S164.4,31.5,164.4,27.3z"/>
					<path class="st7" d="M176.3,26.9l-6.1-9.3h2.5l4.8,7.4l4.8-7.4h2.6l-6.1,9.3l6.6,10.1h-2.5l-5.4-8.1l-5.3,8.1h-2.5L176.3,26.9
						L176.3,26.9z"/>
				</g>
				<g>
					<g>
						<defs>
							<polygon id="SVGID_00000138533994736397777650000004115376180889512881_" points="74.7,17.6 65.9,37.3 65.6,37.3 56.8,17.6 
								59.2,17.6 65.7,32.6 72.3,17.6 							"/>
						</defs>
						<clipPath id="SVGID_00000103242247174670618420000011909072030176863643_">
							<use xlink:href="#SVGID_00000138533994736397777650000004115376180889512881_"  style="overflow:visible;"/>
						</clipPath>
						<g style="clip-path:url(#SVGID_00000103242247174670618420000011909072030176863643_);">
							<rect x="56.8" y="17.6" class="st7" width="0.7" height="19.7"/>
							<rect x="57.5" y="17.6" class="st7" width="1.9" height="19.7"/>
							<rect x="59.4" y="17.6" class="st9" width="1.9" height="19.7"/>
							<rect x="61.3" y="17.6" class="st10" width="1.9" height="19.7"/>
							<rect x="63.2" y="17.6" class="st11" width="1.9" height="19.7"/>
							<rect x="65" y="17.6" class="st12" width="1.9" height="19.7"/>
							<rect x="66.9" y="17.6" class="st13" width="1.9" height="19.7"/>
							<rect x="68.8" y="17.6" class="st14" width="1.9" height="19.7"/>
							<rect x="70.7" y="17.6" class="st15" width="1.9" height="19.7"/>
							<rect x="72.5" y="17.6" class="st16" width="1.9" height="19.7"/>
							<rect x="74.4" y="17.6" class="st17" width="0.3" height="19.7"/>
						</g>
					</g>
					<g>
						<defs>
							<path id="SVGID_00000016065279625433084560000014610451376660963218_" d="M78.5,33.5l1.7-1.2c0.9,1.7,2.9,2.8,4.9,2.8
								c2.5,0,4.6-1.4,4.6-3.3c0-2.2-2.8-3.2-5.2-4.1c-2.4-0.9-5-2.1-5-5.1s2.7-5.2,6.1-5.2c2.9,0,4.8,1.6,5.6,3.5l-1.7,1.1
								c-0.6-1.5-2.2-2.4-3.9-2.4c-2.1,0-3.8,1.4-3.8,3.1c0,1.9,2.1,2.6,4.6,3.5c2.9,1.2,5.7,2.5,5.7,5.6c0,3.3-3.1,5.5-6.8,5.5
								C81.9,37.2,79.4,35.6,78.5,33.5L78.5,33.5z"/>
						</defs>
						<clipPath id="SVGID_00000131367576876233698930000018367844409505607356_">
							<use xlink:href="#SVGID_00000016065279625433084560000014610451376660963218_"  style="overflow:visible;"/>
						</clipPath>
						<g style="clip-path:url(#SVGID_00000131367576876233698930000018367844409505607356_);">
							<rect x="78.5" y="17.3" class="st19" width="1.5" height="19.9"/>
							<rect x="80" y="17.3" class="st20" width="1.9" height="19.9"/>
							<rect x="81.9" y="17.3" class="st21" width="1.9" height="19.9"/>
							<rect x="83.8" y="17.3" class="st22" width="1.9" height="19.9"/>
							<rect x="85.7" y="17.3" class="st23" width="1.9" height="19.9"/>
							<rect x="87.5" y="17.3" class="st24" width="1.9" height="19.9"/>
							<rect x="89.4" y="17.3" class="st25" width="1.9" height="19.9"/>
							<rect x="91.3" y="17.3" class="st26" width="0.6" height="19.9"/>
						</g>
					</g>
					<g>
						<defs>
							<path id="SVGID_00000051342185748923186800000016627203842736423085_" d="M97.2,33.5l1.7-1.2c0.9,1.7,2.9,2.8,4.9,2.8
								c2.5,0,4.6-1.4,4.6-3.3c0-2.2-2.8-3.2-5.2-4.1c-2.4-0.9-5-2.1-5-5.1s2.7-5.2,6.1-5.2c2.9,0,4.8,1.6,5.6,3.5l-1.7,1.1
								c-0.6-1.5-2.2-2.4-3.9-2.4c-2.1,0-3.8,1.4-3.8,3.1c0,1.9,2.1,2.6,4.6,3.5c2.9,1.2,5.7,2.5,5.7,5.6c0,3.3-3.1,5.5-6.8,5.5
								C100.6,37.2,98.2,35.6,97.2,33.5L97.2,33.5z"/>
						</defs>
						<clipPath id="SVGID_00000062882671901428004630000000256298464402604456_">
							<use xlink:href="#SVGID_00000051342185748923186800000016627203842736423085_"  style="overflow:visible;"/>
						</clipPath>
						<g style="clip-path:url(#SVGID_00000062882671901428004630000000256298464402604456_);">
							<rect x="97.2" y="17.3" class="st28" width="1.5" height="19.9"/>
							<rect x="98.8" y="17.3" class="st29" width="1.9" height="19.9"/>
							<rect x="100.6" y="17.3" class="st30" width="1.9" height="19.9"/>
							<rect x="102.5" y="17.3" class="st31" width="1.9" height="19.9"/>
							<rect x="104.4" y="17.3" class="st32" width="1.9" height="19.9"/>
							<rect x="106.3" y="17.3" class="st33" width="1.9" height="19.9"/>
							<rect x="108.1" y="17.3" class="st34" width="1.9" height="19.9"/>
							<rect x="110" y="17.3" class="st35" width="0.6" height="19.9"/>
						</g>
					</g>
					<g>
						<defs>
							<path id="SVGID_00000171677889146982127110000002800966674440480936_" d="M141.3,31.1c0,3.1-2.4,5.9-6.1,5.9h-7.2V17.6h5.3
								c3.2,0,5.6,2.3,5.6,4.8c0,2.1-1.5,3.6-2.5,3.6C138.9,26.1,141.3,28.1,141.3,31.1L141.3,31.1z M130.2,19.7v5.9h3.2
								c2.1,0,3.4-1.3,3.4-2.9s-1.6-3-3.4-3H130.2z M139.2,30.9c0-1.8-1.7-3.4-4.3-3.4h-4.7v7.3h4.8
								C137.2,34.8,139.2,33.2,139.2,30.9L139.2,30.9z"/>
						</defs>
						<clipPath id="SVGID_00000102536252170705469450000007235122753955698324_">
							<use xlink:href="#SVGID_00000171677889146982127110000002800966674440480936_"  style="overflow:visible;"/>
						</clipPath>
						<g style="clip-path:url(#SVGID_00000102536252170705469450000007235122753955698324_);">
							<rect x="130.2" y="27.5" class="st37" width="0.4" height="7.3"/>
							<rect x="130.6" y="27.5" class="st38" width="1.9" height="7.3"/>
							<rect x="132.5" y="27.5" class="st39" width="1.9" height="7.3"/>
							<rect x="134.4" y="27.5" class="st40" width="1.9" height="7.3"/>
							<rect x="136.2" y="27.5" class="st41" width="1.9" height="7.3"/>
							<rect x="138.1" y="27.5" class="st42" width="1.1" height="7.3"/>
							<rect x="130.2" y="19.7" class="st37" width="0.4" height="5.9"/>
							<rect x="130.6" y="19.7" class="st38" width="1.9" height="5.9"/>
							<rect x="132.5" y="19.7" class="st39" width="1.9" height="5.9"/>
							<rect x="134.4" y="19.7" class="st40" width="1.9" height="5.9"/>
							<rect x="136.2" y="19.7" class="st41" width="0.6" height="5.9"/>
							<rect x="128.1" y="17.6" class="st43" width="0.7" height="19.4"/>
							<rect x="128.7" y="17.6" class="st37" width="1.9" height="19.4"/>
							<rect x="130.6" y="17.6" class="st38" width="1.9" height="19.4"/>
							<rect x="132.5" y="17.6" class="st39" width="1.9" height="19.4"/>
							<rect x="134.4" y="17.6" class="st40" width="1.9" height="19.4"/>
							<rect x="136.2" y="17.6" class="st41" width="1.9" height="19.4"/>
							<rect x="138.1" y="17.6" class="st42" width="1.9" height="19.4"/>
							<rect x="140" y="17.6" class="st44" width="1.4" height="19.4"/>
						</g>
					</g>
					<g>
						<defs>
							<path id="SVGID_00000025425132316776750230000004538679091681388937_" d="M146.7,27.3c0-5.5,4.5-10,9.9-10s10,4.5,10,10
								s-4.5,9.9-10,9.9S146.7,32.8,146.7,27.3z M164.4,27.3c0-4.3-3.5-7.8-7.8-7.8s-7.7,3.5-7.7,7.8s3.5,7.7,7.7,7.7
								S164.4,31.5,164.4,27.3z"/>
						</defs>
						<clipPath id="SVGID_00000158731085467403307270000002403575619987154365_">
							<use xlink:href="#SVGID_00000025425132316776750230000004538679091681388937_"  style="overflow:visible;"/>
						</clipPath>
						<g style="clip-path:url(#SVGID_00000158731085467403307270000002403575619987154365_);">
							<rect x="148.9" y="19.5" class="st46" width="0.5" height="15.5"/>
							<rect x="149.4" y="19.5" class="st47" width="1.9" height="15.5"/>
							<rect x="151.2" y="19.5" class="st48" width="1.9" height="15.5"/>
							<rect x="153.1" y="19.5" class="st49" width="1.9" height="15.5"/>
							<rect x="155" y="19.5" class="st50" width="1.9" height="15.5"/>
							<rect x="156.8" y="19.5" class="st51" width="1.9" height="15.5"/>
							<rect x="158.7" y="19.5" class="st52" width="1.9" height="15.5"/>
							<rect x="160.6" y="19.5" class="st53" width="1.9" height="15.5"/>
							<rect x="162.5" y="19.5" class="st54" width="1.9" height="15.5"/>
							<rect x="164.3" y="19.5" class="st55" width="0" height="15.5"/>
							<rect x="146.7" y="17.3" class="st56" width="0.8" height="19.9"/>
							<rect x="147.5" y="17.3" class="st46" width="1.9" height="19.9"/>
							<rect x="149.4" y="17.3" class="st47" width="1.9" height="19.9"/>
							<rect x="151.2" y="17.3" class="st48" width="1.9" height="19.9"/>
							<rect x="153.1" y="17.3" class="st49" width="1.9" height="19.9"/>
							<rect x="155" y="17.3" class="st50" width="1.9" height="19.9"/>
							<rect x="156.8" y="17.3" class="st51" width="1.9" height="19.9"/>
							<rect x="158.7" y="17.3" class="st52" width="1.9" height="19.9"/>
							<rect x="160.6" y="17.3" class="st53" width="1.9" height="19.9"/>
							<rect x="162.5" y="17.3" class="st54" width="1.9" height="19.9"/>
							<rect x="164.3" y="17.3" class="st55" width="1.9" height="19.9"/>
							<rect x="166.2" y="17.3" class="st57" width="0.4" height="19.9"/>
						</g>
					</g>
					<g>
						<defs>
							<polygon id="SVGID_00000134955407664870845660000002447897088607169941_" points="176.3,26.9 170.2,17.6 172.8,17.6 
								177.6,25 182.4,17.6 185,17.6 178.9,26.9 185.4,37 182.9,37 177.6,28.9 172.2,37 169.8,37 176.3,26.9 							"/>
						</defs>
						<clipPath id="SVGID_00000014603023442461700440000017831391058559675303_">
							<use xlink:href="#SVGID_00000134955407664870845660000002447897088607169941_"  style="overflow:visible;"/>
						</clipPath>
						<g style="clip-path:url(#SVGID_00000014603023442461700440000017831391058559675303_);">
							<rect x="169.8" y="17.6" class="st59" width="0.2" height="19.4"/>
							<rect x="169.9" y="17.6" class="st60" width="1.9" height="19.4"/>
							<rect x="171.8" y="17.6" class="st61" width="1.9" height="19.4"/>
							<rect x="173.7" y="17.6" class="st62" width="1.9" height="19.4"/>
							<rect x="175.6" y="17.6" class="st63" width="1.9" height="19.4"/>
							<rect x="177.4" y="17.6" class="st63" width="1.9" height="19.4"/>
							<rect x="179.3" y="17.6" class="st64" width="1.9" height="19.4"/>
							<rect x="181.2" y="17.6" class="st64" width="1.9" height="19.4"/>
							<rect x="183.1" y="17.6" class="st64" width="2.4" height="19.4"/>
						</g>
					</g>
				</g>
			</g>
			<g>
				<defs>
					<rect id="SVGID_00000146498974545482093420000002002156123055591088_" x="116.4" y="26" width="4.4" height="4.4"/>
				</defs>
				<clipPath id="SVGID_00000021801390206805725240000006117843043394321827_">
					<use xlink:href="#SVGID_00000146498974545482093420000002002156123055591088_"  style="overflow:visible;"/>
				</clipPath>
				<g style="clip-path:url(#SVGID_00000021801390206805725240000006117843043394321827_);">
					<rect x="116.4" y="26" class="st7" width="0" height="4.4"/>
					<rect x="116.5" y="26" class="st7" width="0.1" height="4.4"/>
					<rect x="116.5" y="26" class="st9" width="0.1" height="4.4"/>
					<rect x="116.6" y="26" class="st10" width="0.1" height="4.4"/>
					<rect x="116.7" y="26" class="st11" width="0.1" height="4.4"/>
					<rect x="116.7" y="26" class="st12" width="0.1" height="4.4"/>
					<rect x="116.8" y="26" class="st13" width="0.1" height="4.4"/>
					<rect x="116.8" y="26" class="st14" width="0.1" height="4.4"/>
					<rect x="116.9" y="26" class="st15" width="0.1" height="4.4"/>
					<rect x="117" y="26" class="st16" width="0.1" height="4.4"/>
					<rect x="117" y="26" class="st17" width="0.1" height="4.4"/>
					<rect x="117.1" y="26" class="st66" width="0.1" height="4.4"/>
					<rect x="117.2" y="26" class="st19" width="0.1" height="4.4"/>
					<rect x="117.2" y="26" class="st20" width="0.1" height="4.4"/>
					<rect x="117.3" y="26" class="st21" width="0.1" height="4.4"/>
					<rect x="117.4" y="26" class="st22" width="0.1" height="4.4"/>
					<rect x="117.4" y="26" class="st23" width="0.1" height="4.4"/>
					<rect x="117.5" y="26" class="st24" width="0.1" height="4.4"/>
					<rect x="117.6" y="26" class="st25" width="0.1" height="4.4"/>
					<rect x="117.6" y="26" class="st26" width="0.1" height="4.4"/>
					<rect x="117.7" y="26" class="st67" width="0.1" height="4.4"/>
					<rect x="117.7" y="26" class="st68" width="0.1" height="4.4"/>
					<rect x="117.8" y="26" class="st28" width="0.1" height="4.4"/>
					<rect x="117.9" y="26" class="st29" width="0.1" height="4.4"/>
					<rect x="117.9" y="26" class="st30" width="0.1" height="4.4"/>
					<rect x="118" y="26" class="st31" width="0.1" height="4.4"/>
					<rect x="118.1" y="26" class="st32" width="0.1" height="4.4"/>
					<rect x="118.1" y="26" class="st33" width="0.1" height="4.4"/>
					<rect x="118.2" y="26" class="st34" width="0.1" height="4.4"/>
					<rect x="118.3" y="26" class="st35" width="0.1" height="4.4"/>
					<rect x="118.3" y="26" class="st69" width="0.1" height="4.4"/>
					<rect x="118.4" y="26" class="st70" width="0.1" height="4.4"/>
					<rect x="118.4" y="26" class="st71" width="0.1" height="4.4"/>
					<rect x="118.5" y="26" class="st72" width="0.1" height="4.4"/>
					<rect x="118.6" y="26" class="st73" width="0.1" height="4.4"/>
					<rect x="118.6" y="26" class="st74" width="0.1" height="4.4"/>
					<rect x="118.7" y="26" class="st75" width="0.1" height="4.4"/>
					<rect x="118.8" y="26" class="st76" width="0.1" height="4.4"/>
					<rect x="118.8" y="26" class="st43" width="0.1" height="4.4"/>
					<rect x="118.9" y="26" class="st37" width="0.1" height="4.4"/>
					<rect x="119" y="26" class="st38" width="0.1" height="4.4"/>
					<rect x="119" y="26" class="st39" width="0.1" height="4.4"/>
					<rect x="119.1" y="26" class="st40" width="0.1" height="4.4"/>
					<rect x="119.2" y="26" class="st41" width="0.1" height="4.4"/>
					<rect x="119.2" y="26" class="st42" width="0.1" height="4.4"/>
					<rect x="119.3" y="26" class="st44" width="0.1" height="4.4"/>
					<rect x="119.3" y="26" class="st77" width="0.1" height="4.4"/>
					<rect x="119.4" y="26" class="st78" width="0.1" height="4.4"/>
					<rect x="119.5" y="26" class="st56" width="0.1" height="4.4"/>
					<rect x="119.5" y="26" class="st46" width="0.1" height="4.4"/>
					<rect x="119.6" y="26" class="st47" width="0.1" height="4.4"/>
					<rect x="119.7" y="26" class="st48" width="0.1" height="4.4"/>
					<rect x="119.7" y="26" class="st49" width="0.1" height="4.4"/>
					<rect x="119.8" y="26" class="st50" width="0.1" height="4.4"/>
					<rect x="119.9" y="26" class="st51" width="0.1" height="4.4"/>
					<rect x="119.9" y="26" class="st52" width="0.1" height="4.4"/>
					<rect x="120" y="26" class="st53" width="0.1" height="4.4"/>
					<rect x="120.1" y="26" class="st54" width="0.1" height="4.4"/>
					<rect x="120.1" y="26" class="st55" width="0.1" height="4.4"/>
					<rect x="120.2" y="26" class="st57" width="0.1" height="4.4"/>
					<rect x="120.2" y="26" class="st59" width="0.1" height="4.4"/>
					<rect x="120.3" y="26" class="st60" width="0.1" height="4.4"/>
					<rect x="120.4" y="26" class="st61" width="0.1" height="4.4"/>
					<rect x="120.4" y="26" class="st62" width="0.1" height="4.4"/>
					<rect x="120.5" y="26" class="st63" width="0.1" height="4.4"/>
					<rect x="120.6" y="26" class="st63" width="0.1" height="4.4"/>
					<rect x="120.6" y="26" class="st64" width="0.1" height="4.4"/>
					<rect x="120.7" y="26" class="st64" width="0.1" height="4.4"/>
					<rect x="120.8" y="26" class="st64" width="0.1" height="4.4"/>
				</g>
			</g>
		</g>
	</g>
</g>
</svg>
