<?xml version="1.0" encoding="utf-8"?>
<!-- Generator: Adobe Illustrator 27.5.0, SVG Export Plug-In . SVG Version: 6.00 Build 0)  -->
<svg version="1.1" id="Layer_1" xmlns="http://www.w3.org/2000/svg" xmlns:xlink="http://www.w3.org/1999/xlink" x="0px" y="0px"
	 viewBox="0 0 320.6 62" style="enable-background:new 0 0 320.6 62;" xml:space="preserve">
<style type="text/css">
	.st0{fill:#FFFFFF;}
</style>
<path class="st0" d="M122.5,44.4v14.1H85.8V1.8h15v42.5H122.5z"/>
<path class="st0" d="M125.6,30.2c0-17,13.5-29.9,31.1-29.9s31.1,12.9,31.1,29.9s-13.5,29.7-31.1,29.7S125.6,47.1,125.6,30.2z
	 M172.6,30.1c0-8.8-6.9-15.5-15.9-15.5s-15.9,6.8-15.9,15.5s6.9,15.4,15.9,15.4S172.6,38.8,172.6,30.1L172.6,30.1z"/>
<path class="st0" d="M253.4,31.5c0,17.2-13,28.4-29.1,28.4c-18,0-31.6-13.4-31.6-29.6s13.6-29.8,31.2-29.8
	c7.2,0.1,15.5,3.2,20.2,7.5l-8.3,11.4c-3.2-3-7.5-4.7-11.9-4.9c-8.7,0-15.7,7-15.9,15.7c0,7.9,6.4,15.7,16.8,15.7
	c6.9,0,11.8-3.3,12-8.7h-13V26H253C253.3,27.8,253.4,29.6,253.4,31.5z"/>
<path class="st0" d="M258.3,30.2c0-17,13.5-29.9,31.1-29.9s31.1,12.9,31.1,29.9s-13.5,29.7-31.1,29.7S258.3,47.1,258.3,30.2z
	 M305.3,30.1c0-8.8-6.9-15.5-15.9-15.5s-15.9,6.8-15.9,15.5s6.9,15.4,15.9,15.4S305.3,38.8,305.3,30.1z"/>
<rect x="9.1" y="9.1" transform="matrix(0.7071 -0.7071 0.7071 0.7071 -12.8411 31.0002)" class="st0" width="43.8" height="43.8"/>
</svg>
